<svg width="60" height="60" viewBox="0 0 60 60" fill="none" xmlns="http://www.w3.org/2000/svg">
<path d="M32.95 26.58L30 17.5L27.05 26.58L17.5 27.05L25.225 31.16L22.275 42.5L30 35.325L37.725 42.5L34.775 31.16L42.5 27.05L32.95 26.58Z" fill="#071946" fill-opacity="0.7"/>
<path d="M32.5 10V5C32.5 4.33696 32.2366 3.70107 31.7678 3.23223C31.2989 2.76339 30.663 2.5 30 2.5C29.337 2.5 28.7011 2.76339 28.2322 3.23223C27.7634 3.70107 27.5 4.33696 27.5 5V10C27.5 10.663 27.7634 11.2989 28.2322 11.7678C28.7011 12.2366 29.337 12.5 30 12.5C30.663 12.5 31.2989 12.2366 31.7678 11.7678C32.2366 11.2989 32.5 10.663 32.5 10ZM27.5 50V55C27.5 55.663 27.7634 56.2989 28.2322 56.7678C28.7011 57.2366 29.337 57.5 30 57.5C30.663 57.5 31.2989 57.2366 31.7678 56.7678C32.2366 56.2989 32.5 55.663 32.5 55V50C32.5 49.337 32.2366 48.7011 31.7678 48.2322C31.2989 47.7634 30.663 47.5 30 47.5C29.337 47.5 28.7011 47.7634 28.2322 48.2322C27.7634 48.7011 27.5 49.337 27.5 50ZM49.445 10.555C48.9762 10.0863 48.3404 9.82303 47.6775 9.82303C47.0146 9.82303 46.3788 10.0863 45.91 10.555L42.375 14.09C42.1362 14.3206 41.9458 14.5965 41.8148 14.9015C41.6837 15.2065 41.6148 15.5345 41.6119 15.8665C41.609 16.1984 41.6722 16.5276 41.798 16.8349C41.9237 17.1421 42.1093 17.4213 42.344 17.656C42.5787 17.8907 42.8579 18.0764 43.1651 18.2021C43.4724 18.3278 43.8016 18.391 44.1335 18.3881C44.4655 18.3852 44.7935 18.3163 45.0985 18.1853C45.4035 18.0542 45.6794 17.8638 45.91 17.625L49.445 14.09C49.9137 13.6212 50.177 12.9854 50.177 12.3225C50.177 11.6596 49.9137 11.0238 49.445 10.555ZM10.555 49.445C11.0238 49.9137 11.6596 50.177 12.3225 50.177C12.9854 50.177 13.6212 49.9137 14.09 49.445L17.625 45.91C18.0804 45.4385 18.3324 44.807 18.3267 44.1515C18.321 43.496 18.0581 42.869 17.5945 42.4055C17.131 41.9419 16.504 41.679 15.8485 41.6733C15.193 41.6676 14.5615 41.9196 14.09 42.375L10.555 45.91C10.0863 46.3788 9.82303 47.0146 9.82303 47.6775C9.82303 48.3404 10.0863 48.9762 10.555 49.445ZM55 27.5H50C49.337 27.5 48.7011 27.7634 48.2322 28.2322C47.7634 28.7011 47.5 29.337 47.5 30C47.5 30.663 47.7634 31.2989 48.2322 31.7678C48.7011 32.2366 49.337 32.5 50 32.5H55C55.663 32.5 56.2989 32.2366 56.7678 31.7678C57.2366 31.2989 57.5 30.663 57.5 30C57.5 29.337 57.2366 28.7011 56.7678 28.2322C56.2989 27.7634 55.663 27.5 55 27.5ZM5 32.5H10C10.663 32.5 11.2989 32.2366 11.7678 31.7678C12.2366 31.2989 12.5 30.663 12.5 30C12.5 29.337 12.2366 28.7011 11.7678 28.2322C11.2989 27.7634 10.663 27.5 10 27.5H5C4.33696 27.5 3.70107 27.7634 3.23223 28.2322C2.76339 28.7011 2.5 29.337 2.5 30C2.5 30.663 2.76339 31.2989 3.23223 31.7678C3.70107 32.2366 4.33696 32.5 5 32.5ZM45.91 49.445C46.3815 49.9004 47.013 50.1524 47.6685 50.1467C48.324 50.141 48.951 49.8781 49.4145 49.4145C49.8781 48.951 50.141 48.324 50.1467 47.6685C50.1524 47.013 49.9004 46.3815 49.445 45.91L45.91 42.375C45.4385 41.9196 44.807 41.6676 44.1515 41.6733C43.496 41.679 42.869 41.9419 42.4055 42.4055C41.9419 42.869 41.679 43.496 41.6733 44.1515C41.6676 44.807 41.9196 45.4385 42.375 45.91L45.91 49.445ZM17.625 17.625C18.0937 17.1562 18.357 16.5204 18.357 15.8575C18.357 15.1946 18.0937 14.5588 17.625 14.09L14.09 10.555C13.6185 10.0996 12.987 9.84762 12.3315 9.85332C11.676 9.85901 11.049 10.1219 10.5855 10.5855C10.1219 11.049 9.85901 11.676 9.85332 12.3315C9.84762 12.987 10.0996 13.6185 10.555 14.09L14.09 17.625C14.5588 18.0937 15.1946 18.357 15.8575 18.357C16.5204 18.357 17.1562 18.0937 17.625 17.625Z" fill="#071946" fill-opacity="0.7"/>
</svg>
