<svg width="422" height="205" viewBox="0 0 422 205" fill="none" xmlns="http://www.w3.org/2000/svg">
<path d="M395.606 275.619C419.535 347.108 381.958 424.619 311.098 450.163C310.484 450.375 309.887 450.596 309.261 450.812C308.634 451.028 308.084 451.218 307.482 451.426C235.525 475.201 157.607 436.777 132.806 364.916C127.476 349.475 125.029 333.754 125.19 318.293C125.263 309.792 126.137 301.372 127.741 293.159C132.256 270.068 142.581 248.421 157.692 230.392C172.435 212.791 191.733 198.642 214.608 189.96C168.796 207.89 144.919 258.968 161.119 305.907C173.628 342.151 206.477 365.605 242.483 367.882L244.607 370.012C268.634 393.333 304.603 402.595 338.416 390.925C385.854 374.553 411.23 323.129 395.581 275.628L395.606 275.619Z" fill="url(#paint0_linear_355_543)"/>
<path d="M423.434 216.248C456.456 311.93 406.199 416.21 311.109 450.159C381.969 424.615 419.545 347.104 395.616 275.615C395.475 275.206 395.33 274.784 395.184 274.361C395.038 273.939 394.892 273.517 394.751 273.108C389.44 258.175 381.824 244.696 372.434 232.961C336.949 188.555 276.191 168.906 219.351 188.237C219.07 188.334 218.788 188.431 218.507 188.528L218.225 188.625C217.854 188.753 217.471 188.886 217.1 189.014L216.882 189.089C216.486 189.226 216.089 189.362 215.701 189.525C215.33 189.653 214.981 189.802 214.614 189.943C191.752 198.621 172.44 212.774 157.698 230.375C157.774 230.263 157.858 230.134 157.934 230.022C176.076 202.442 272.727 154.138 305.753 113.059C308.436 109.714 310.708 106.424 312.48 103.178C362.739 121.612 404.598 161.671 423.425 216.222L423.434 216.248Z" fill="url(#paint1_linear_355_543)"/>
<path d="M307.492 451.422C211.645 483.47 107.677 432.375 74.6326 336.629C46.0738 253.881 79.7861 164.718 150.924 120.15C155.384 117.351 159.984 114.747 164.73 112.321C46.4249 191.179 118.232 307.808 124.064 316.863C124.294 317.241 124.429 317.424 124.429 317.424C124.42 317.398 124.437 317.364 124.428 317.338C124.684 317.665 124.94 317.992 125.192 318.306C125.038 333.75 127.477 349.488 132.807 364.93C157.604 436.777 235.522 475.201 307.483 451.439L307.492 451.422Z" fill="url(#paint2_linear_355_543)"/>
<path d="M244.631 370.004C198.6 373.692 153.734 354 125.206 318.302C124.954 317.988 124.686 317.665 124.442 317.334C124.861 308.757 125.988 300.78 127.765 293.151C132.28 270.059 142.606 248.413 157.716 230.384C172.459 212.782 191.757 198.634 214.632 189.952C168.82 207.882 144.943 258.96 161.143 305.899C173.652 342.143 208.62 367.714 244.644 370C255.049 369.158 255.626 370.705 244.644 370L244.631 370.004Z" fill="url(#paint3_linear_355_543)"/>
<path d="M217.105 189.027C216.631 189.19 216.175 189.362 215.706 189.538C216.103 189.401 216.478 189.243 216.887 189.102C216.964 189.075 217.041 189.049 217.105 189.027Z" fill="url(#paint4_linear_355_543)"/>
<path d="M312.602 102.993C312.602 102.993 312.535 103.131 312.489 103.204C286.666 93.7185 258.609 89.9578 230.331 92.8592C216.479 94.2898 202.575 97.3131 188.848 102.051C180.455 104.947 172.407 108.384 164.731 112.321C166.882 110.878 169.109 109.45 171.389 108.048C171.389 108.048 172.136 107.518 173.555 106.527C185.494 98.1401 244.952 56.4868 305.879 14.8137C305.879 14.8137 335.842 60.0236 312.594 103.01L312.602 102.993Z" fill="url(#paint5_linear_355_543)"/>
<path d="M312.488 103.204C310.724 106.433 308.457 109.735 305.761 113.085C272.734 154.164 194.875 189.296 157.942 230.048C157.849 230.151 157.782 230.289 157.706 230.401C142.595 248.43 132.265 270.064 127.755 293.168C125.973 300.784 124.846 308.761 124.432 317.351C124.306 317.194 124.181 317.037 124.055 316.88C118.224 307.826 46.4163 191.196 164.722 112.339C172.397 108.401 180.445 104.965 188.838 102.068C202.565 97.3306 216.469 94.3074 230.321 92.8768C258.599 89.9754 286.656 93.7361 312.479 103.221L312.488 103.204Z" fill="url(#paint6_linear_355_543)"/>
<path d="M394.593 272.69C389.637 258.952 381.777 247.09 371.982 237.542C356.656 222.63 336.57 213.383 315.301 211.618C303.079 210.596 290.469 212.056 278.161 216.304C230.314 232.817 205.04 285.408 221.73 333.768C226.278 346.945 235.594 360.581 244.618 370.009C208.546 367.582 173.453 341.653 160.812 305.025C144.444 257.6 168.185 206.125 213.988 188.169C214.355 188.029 214.709 187.892 215.075 187.751C215.51 187.601 215.949 187.421 216.397 187.267L216.474 187.24C216.845 187.112 217.216 186.984 217.599 186.851L217.881 186.754C218.162 186.657 218.444 186.56 218.725 186.463C275.57 167.145 336.455 187.165 372.126 232.109C381.565 243.985 389.229 257.604 394.597 272.703L394.593 272.69Z" fill="url(#paint7_linear_355_543)"/>
<path d="M395.184 274.362C395.33 274.784 395.476 275.206 395.617 275.615C411.254 323.121 385.878 374.545 338.453 390.913C304.64 402.583 268.671 393.32 244.644 370C255.048 369.158 277.559 363.279 278.416 362.983L278.698 362.886C278.979 362.788 279.261 362.691 279.542 362.594C326.965 345.554 351.991 293.492 335.504 245.722C331.146 233.095 324.777 220.861 316.214 211.69C337.456 213.378 355.759 219.947 371.019 234.667C380.77 244.087 389.844 259.511 394.765 273.103C394.906 273.513 395.052 273.935 395.197 274.357L395.184 274.362Z" fill="url(#paint8_linear_355_543)"/>
<defs>
<linearGradient id="paint0_linear_355_543" x1="162.89" y1="303.203" x2="398.013" y2="335.856" gradientUnits="userSpaceOnUse">
<stop stop-color="#7FDA46"/>
<stop offset="1" stop-color="#D1F056"/>
</linearGradient>
<linearGradient id="paint1_linear_355_543" x1="211.992" y1="250.475" x2="439.873" y2="260.848" gradientUnits="userSpaceOnUse">
<stop stop-color="#7FDA46"/>
<stop offset="1" stop-color="#D1F056"/>
</linearGradient>
<linearGradient id="paint2_linear_355_543" x1="84.192" y1="266.343" x2="253.492" y2="251.974" gradientUnits="userSpaceOnUse">
<stop stop-color="#7FDA46"/>
<stop offset="1" stop-color="#D1F056"/>
</linearGradient>
<linearGradient id="paint3_linear_355_543" x1="135.096" y1="280.179" x2="249.825" y2="280.979" gradientUnits="userSpaceOnUse">
<stop stop-color="#7FDA46"/>
<stop offset="1" stop-color="#D1F056"/>
</linearGradient>
<linearGradient id="paint4_linear_355_543" x1="215.946" y1="189.436" x2="215.965" y2="189.483" gradientUnits="userSpaceOnUse">
<stop stop-color="#7FDA46"/>
<stop offset="1" stop-color="#D1F056"/>
</linearGradient>
<linearGradient id="paint5_linear_355_543" x1="186.521" y1="85.4759" x2="289.252" y2="135.146" gradientUnits="userSpaceOnUse">
<stop stop-color="#7FDA46"/>
<stop offset="1" stop-color="#D1F056"/>
</linearGradient>
<linearGradient id="paint6_linear_355_543" x1="121.577" y1="188.025" x2="311.915" y2="242.782" gradientUnits="userSpaceOnUse">
<stop stop-color="#7FDA46"/>
<stop offset="1" stop-color="#D1F056"/>
</linearGradient>
<linearGradient id="paint7_linear_355_543" x1="188.007" y1="259.622" x2="369.12" y2="304.274" gradientUnits="userSpaceOnUse">
<stop stop-color="#7FDA46"/>
<stop offset="1" stop-color="#D1F056"/>
</linearGradient>
<linearGradient id="paint8_linear_355_543" x1="250.876" y1="294.981" x2="398.562" y2="314.382" gradientUnits="userSpaceOnUse">
<stop stop-color="#7FDA46"/>
<stop offset="1" stop-color="#D1F056"/>
</linearGradient>
</defs>
</svg>
