<svg width="1920" height="924" viewBox="0 0 1920 924" fill="none" xmlns="http://www.w3.org/2000/svg">
<g clip-path="url(#clip0_135_171)">
<rect width="1920" height="924" fill="#073233"/>
<g style="mix-blend-mode:luminosity" opacity="0.15">
<path d="M670.085 631.958C585.359 697.367 520.219 756.296 471.756 833.417C519.73 750.648 588.147 681.18 670.085 631.958Z" fill="#8DC641"/>
<path d="M1524.31 1121.27C1521.43 1427.72 1274.24 1675.74 968.081 1679.94C965.464 1679.99 962.824 1680.01 960.183 1680.01C957.542 1680.01 955.097 1680.01 952.554 1679.97C644.509 1675.88 396.029 1424.88 396.029 1115.89C396.029 1049.5 407.497 985.802 428.575 926.653C440.14 894.083 454.64 862.907 471.732 833.418C519.707 750.648 588.123 681.18 670.061 631.959C750.043 583.862 843.009 555.106 942.382 552.05C742.586 560.217 583.086 724.827 583.086 926.653C583.086 1082.53 678.204 1216.19 813.594 1272.74L818.924 1283.75C880.323 1405.22 1006.3 1488.51 1151.69 1488.51C1355.69 1488.51 1521.4 1324.58 1524.29 1121.29L1524.31 1121.27Z" fill="url(#paint0_linear_135_171)"/>
<path d="M1709.97 930.027C1709.97 1341.53 1378.55 1675.61 968.105 1679.94C1274.27 1675.74 1521.45 1427.72 1524.34 1121.27C1524.34 1119.48 1524.34 1117.67 1524.34 1115.89C1524.34 1114.1 1524.34 1112.29 1524.34 1110.51C1523.75 1046.05 1512.33 984.188 1491.82 926.653C1414.33 708.958 1206.93 552.881 962.873 551.757C961.674 551.757 960.476 551.757 959.278 551.757H958.056C956.442 551.757 954.803 551.757 953.214 551.805H952.26C950.549 551.805 948.862 551.854 947.174 551.928C945.609 551.977 944.02 552.025 942.455 552.099C843.058 555.131 750.117 583.911 670.135 632.008C670.599 631.665 671.064 631.298 671.529 630.932C777.821 548.993 1213.28 491.58 1394.67 377.537C1409.44 368.245 1422.54 358.587 1433.6 348.513C1602.29 486.005 1710 695.46 1710 930.076L1709.97 930.027Z" fill="url(#paint1_linear_135_171)"/>
<path d="M952.579 1679.97C541.763 1676.03 210 1341.77 210 930.027C210 574.203 457.795 276.233 790.267 199.331C811.1 194.514 832.251 190.578 853.72 187.521C294.506 333.646 415.762 877.064 426.155 919.61C426.57 921.346 426.815 922.251 426.815 922.251C426.864 922.129 426.913 922.031 426.961 921.909C427.475 923.498 428.062 925.088 428.624 926.628C407.547 985.777 396.079 1049.47 396.079 1115.86C396.079 1424.86 644.559 1675.86 952.603 1679.94L952.579 1679.97Z" fill="url(#paint2_linear_135_171)"/>
<path d="M818.95 1283.75C637.175 1236.9 490.879 1101.7 428.6 926.653C428.038 925.112 427.451 923.523 426.938 921.933C439.921 889.51 454.837 860.364 471.758 833.442C519.732 750.672 588.149 681.205 670.087 631.983C750.069 583.886 843.035 555.131 942.407 552.074C742.611 560.241 583.112 724.851 583.112 926.677C583.112 1082.56 683.584 1227.21 818.95 1283.77C860.053 1294.36 860.225 1301.04 818.95 1283.77V1283.75Z" fill="url(#paint3_linear_135_171)"/>
<path d="M953.19 551.781C951.161 551.781 949.155 551.854 947.15 551.903C948.838 551.854 950.525 551.805 952.236 551.781C952.554 551.781 952.872 551.781 953.19 551.781Z" fill="#8DC641"/>
<path d="M1434.26 347.828C1434.04 348.023 1433.79 348.268 1433.55 348.464C1346.87 277.773 1244.09 226.106 1131.54 199.747C1076.43 186.861 1018.99 180.039 959.94 180.039C923.849 180.039 888.369 182.607 853.672 187.521C863.868 184.856 874.285 182.313 884.946 179.917C884.946 179.917 888.54 178.89 895.313 176.958C952.311 160.575 1236.03 79.3463 1525.44 -3.58167e-06C1525.44 -3.58167e-06 1580.6 213.489 1434.26 347.828Z" fill="url(#paint4_linear_135_171)"/>
<path d="M1433.57 348.463C1422.49 358.562 1409.41 368.196 1394.64 377.488C1213.26 491.531 867.461 523.294 671.504 630.882C670.991 631.176 670.575 631.616 670.11 631.958C588.148 681.18 519.731 750.648 471.781 833.417C454.836 860.339 439.945 889.485 426.961 921.909C426.692 921.151 426.423 920.368 426.154 919.61C415.737 877.064 294.505 333.645 853.719 187.521C888.441 182.582 923.921 180.039 959.987 180.039C1019.01 180.039 1076.48 186.861 1131.59 199.747C1244.12 226.082 1346.91 277.748 1433.6 348.463H1433.57Z" fill="url(#paint5_linear_135_171)"/>
<path d="M1524.31 1108.67C1523.46 1049.3 1509.06 993.284 1484.07 943.622C1444.97 865.963 1380.02 803.831 1300.65 768.84C1255.05 748.741 1204.65 737.566 1151.72 737.566C945.929 737.566 779.094 906.162 779.094 1114.12C779.094 1170.76 796.797 1235.58 818.975 1283.75C683.609 1226.6 583.137 1080.41 583.137 922.887C583.137 718.934 742.636 552.588 942.433 544.347C943.997 544.274 945.587 544.225 947.152 544.176C949.035 544.127 950.966 544.079 952.874 544.054H953.191C954.781 544.005 956.419 544.005 958.033 544.005H959.255C960.454 544.005 961.676 544.005 962.85 544.005C1206.9 545.13 1414.3 702.869 1491.79 922.862C1512.31 981.009 1523.73 1043.53 1524.31 1108.65V1108.67Z" fill="url(#paint6_linear_135_171)"/>
<path d="M1524.34 1115.89C1524.34 1117.69 1524.34 1119.48 1524.34 1121.26C1521.43 1324.56 1355.74 1488.48 1151.74 1488.48C1006.35 1488.48 880.371 1405.2 818.973 1283.72C860.076 1294.31 954.387 1301.55 958.055 1301.55H959.277C960.476 1301.55 961.698 1301.55 962.872 1301.55C1167.71 1298.96 1332.95 1132.1 1332.95 926.652C1332.95 872.369 1324.71 816.888 1303.95 770.307C1383.32 804.956 1444.97 854.471 1484.06 931.298C1509.05 980.447 1523.48 1051.75 1524.31 1110.51C1524.31 1112.29 1524.31 1114.1 1524.31 1115.89H1524.34Z" fill="url(#paint7_linear_135_171)"/>
</g>
<rect width="1920" height="924" fill="url(#paint8_linear_135_171)"/>
</g>
<defs>
<linearGradient id="paint0_linear_135_171" x1="1208.37" y1="1624.12" x2="644.142" y2="646.85" gradientUnits="userSpaceOnUse">
<stop stop-color="#BDD634"/>
<stop offset="0.33" stop-color="#B8D435"/>
<stop offset="1" stop-color="#4AA948"/>
</linearGradient>
<linearGradient id="paint1_linear_135_171" x1="1190.03" y1="1679.94" x2="1190.03" y2="348.464" gradientUnits="userSpaceOnUse">
<stop stop-color="#187F40"/>
<stop offset="1" stop-color="#BBD642"/>
</linearGradient>
<linearGradient id="paint2_linear_135_171" x1="381.016" y1="398.15" x2="1078.95" y2="1607" gradientUnits="userSpaceOnUse">
<stop offset="0.05" stop-color="#BDD239"/>
<stop offset="1" stop-color="#128542"/>
</linearGradient>
<linearGradient id="paint3_linear_135_171" x1="684.685" y1="1294.34" x2="684.685" y2="552.074" gradientUnits="userSpaceOnUse">
<stop stop-color="#143D1F"/>
<stop offset="1" stop-color="#1E743B"/>
</linearGradient>
<linearGradient id="paint4_linear_135_171" x1="853.696" y1="174.244" x2="1535.63" y2="174.244" gradientUnits="userSpaceOnUse">
<stop stop-color="#1C753B"/>
<stop offset="0.95" stop-color="#BDD239"/>
</linearGradient>
<linearGradient id="paint5_linear_135_171" x1="408.011" y1="550.998" x2="1433.57" y2="550.998" gradientUnits="userSpaceOnUse">
<stop stop-color="#1C6339"/>
<stop offset="1" stop-color="#36AB4A"/>
</linearGradient>
<linearGradient id="paint6_linear_135_171" x1="744.128" y1="1246.34" x2="1319.28" y2="671.155" gradientUnits="userSpaceOnUse">
<stop stop-color="#6CB545"/>
<stop offset="0.5" stop-color="#1F8742"/>
<stop offset="1" stop-color="#14683E"/>
</linearGradient>
<linearGradient id="paint7_linear_135_171" x1="971.626" y1="1462.78" x2="1504.82" y2="929.587" gradientUnits="userSpaceOnUse">
<stop stop-color="#208F49"/>
<stop offset="1" stop-color="#BED633"/>
</linearGradient>
<linearGradient id="paint8_linear_135_171" x1="960" y1="0" x2="960" y2="924" gradientUnits="userSpaceOnUse">
<stop stop-color="#073233" stop-opacity="0"/>
<stop offset="1" stop-color="#C8EE54" stop-opacity="0.16"/>
</linearGradient>
<clipPath id="clip0_135_171">
<rect width="1920" height="924" fill="white"/>
</clipPath>
</defs>
</svg>
