<svg width="1500" height="924" viewBox="0 0 1500 924" fill="none" xmlns="http://www.w3.org/2000/svg">
<g style="mix-blend-mode:luminosity" opacity="0.15">
<path d="M460.085 631.958C375.359 697.367 310.219 756.296 261.756 833.417C309.73 750.648 378.147 681.18 460.085 631.958Z" fill="#8DC641"/>
<path d="M1314.31 1121.27C1311.43 1427.72 1064.24 1675.74 758.081 1679.94C755.464 1679.99 752.824 1680.01 750.183 1680.01C747.542 1680.01 745.097 1680.01 742.554 1679.97C434.509 1675.88 186.029 1424.88 186.029 1115.89C186.029 1049.5 197.497 985.802 218.575 926.653C230.14 894.083 244.64 862.907 261.732 833.418C309.707 750.648 378.123 681.18 460.061 631.959C540.043 583.862 633.009 555.106 732.382 552.05C532.586 560.217 373.086 724.827 373.086 926.653C373.086 1082.53 468.204 1216.19 603.594 1272.74L608.924 1283.75C670.323 1405.22 796.299 1488.51 941.69 1488.51C1145.69 1488.51 1311.4 1324.58 1314.29 1121.29L1314.31 1121.27Z" fill="url(#paint0_linear_135_172)"/>
<path d="M1499.97 930.027C1499.97 1341.53 1168.55 1675.61 758.105 1679.94C1064.27 1675.74 1311.45 1427.72 1314.34 1121.27C1314.34 1119.48 1314.34 1117.67 1314.34 1115.89C1314.34 1114.1 1314.34 1112.29 1314.34 1110.51C1313.75 1046.05 1302.33 984.188 1281.82 926.653C1204.33 708.958 996.927 552.881 752.873 551.757C751.674 551.757 750.476 551.757 749.278 551.757H748.056C746.442 551.757 744.803 551.757 743.214 551.805H742.26C740.549 551.805 738.862 551.854 737.174 551.928C735.609 551.977 734.02 552.025 732.455 552.099C633.058 555.131 540.117 583.911 460.135 632.008C460.599 631.665 461.064 631.298 461.529 630.932C567.821 548.993 1003.28 491.58 1184.67 377.537C1199.44 368.245 1212.54 358.587 1223.6 348.513C1392.29 486.005 1500 695.46 1500 930.076L1499.97 930.027Z" fill="url(#paint1_linear_135_172)"/>
<path d="M742.579 1679.97C331.763 1676.03 0 1341.77 0 930.027C0 574.203 247.795 276.233 580.267 199.331C601.1 194.514 622.251 190.578 643.72 187.521C84.5056 333.646 205.762 877.064 216.155 919.61C216.57 921.346 216.815 922.251 216.815 922.251C216.864 922.129 216.913 922.031 216.961 921.909C217.475 923.498 218.062 925.088 218.624 926.628C197.547 985.777 186.079 1049.47 186.079 1115.86C186.079 1424.86 434.559 1675.86 742.603 1679.94L742.579 1679.97Z" fill="url(#paint2_linear_135_172)"/>
<path d="M608.95 1283.75C427.175 1236.9 280.879 1101.7 218.6 926.653C218.038 925.112 217.451 923.523 216.938 921.933C229.921 889.51 244.837 860.364 261.758 833.442C309.732 750.672 378.149 681.205 460.087 631.983C540.069 583.886 633.035 555.131 732.407 552.074C532.611 560.241 373.112 724.851 373.112 926.677C373.112 1082.56 473.584 1227.21 608.95 1283.77C650.053 1294.36 650.225 1301.04 608.95 1283.77V1283.75Z" fill="url(#paint3_linear_135_172)"/>
<path d="M743.19 551.781C741.161 551.781 739.155 551.854 737.15 551.903C738.838 551.854 740.525 551.805 742.236 551.781C742.554 551.781 742.872 551.781 743.19 551.781Z" fill="#8DC641"/>
<path d="M1224.26 347.828C1224.04 348.023 1223.79 348.268 1223.55 348.464C1136.87 277.773 1034.09 226.106 921.543 199.747C866.428 186.861 808.991 180.039 749.94 180.039C713.849 180.039 678.369 182.607 643.672 187.521C653.868 184.856 664.285 182.313 674.946 179.917C674.946 179.917 678.54 178.89 685.313 176.958C742.311 160.575 1026.03 79.3463 1315.44 -3.58167e-06C1315.44 -3.58167e-06 1370.6 213.489 1224.26 347.828Z" fill="url(#paint4_linear_135_172)"/>
<path d="M1223.57 348.463C1212.49 358.562 1199.41 368.196 1184.64 377.488C1003.26 491.531 657.461 523.294 461.504 630.882C460.991 631.176 460.575 631.616 460.11 631.958C378.148 681.18 309.731 750.648 261.781 833.417C244.836 860.339 229.945 889.485 216.961 921.909C216.692 921.151 216.423 920.368 216.154 919.61C205.737 877.064 84.5051 333.645 643.719 187.521C678.441 182.582 713.921 180.039 749.987 180.039C809.014 180.039 866.476 186.861 921.59 199.747C1034.12 226.082 1136.91 277.748 1223.6 348.463H1223.57Z" fill="url(#paint5_linear_135_172)"/>
<path d="M1314.31 1108.67C1313.46 1049.3 1299.06 993.284 1274.07 943.622C1234.97 865.963 1170.02 803.831 1090.65 768.84C1045.05 748.741 994.654 737.566 941.716 737.566C735.929 737.566 569.094 906.162 569.094 1114.12C569.094 1170.76 586.797 1235.58 608.975 1283.75C473.609 1226.6 373.137 1080.41 373.137 922.887C373.137 718.934 532.636 552.588 732.433 544.347C733.997 544.274 735.587 544.225 737.152 544.176C739.035 544.127 740.966 544.079 742.874 544.054H743.191C744.781 544.005 746.419 544.005 748.033 544.005H749.255C750.454 544.005 751.676 544.005 752.85 544.005C996.904 545.13 1204.3 702.869 1281.79 922.862C1302.31 981.009 1313.73 1043.53 1314.31 1108.65V1108.67Z" fill="url(#paint6_linear_135_172)"/>
<path d="M1314.34 1115.89C1314.34 1117.69 1314.34 1119.48 1314.34 1121.26C1311.43 1324.56 1145.74 1488.48 941.738 1488.48C796.347 1488.48 670.371 1405.2 608.973 1283.72C650.076 1294.31 744.387 1301.55 748.055 1301.55H749.277C750.476 1301.55 751.698 1301.55 752.872 1301.55C957.705 1298.96 1122.95 1132.1 1122.95 926.652C1122.95 872.369 1114.71 816.888 1093.95 770.307C1173.32 804.956 1234.97 854.471 1274.06 931.298C1299.05 980.447 1313.48 1051.75 1314.31 1110.51C1314.31 1112.29 1314.31 1114.1 1314.31 1115.89H1314.34Z" fill="url(#paint7_linear_135_172)"/>
</g>
<defs>
<linearGradient id="paint0_linear_135_172" x1="998.369" y1="1624.12" x2="434.142" y2="646.85" gradientUnits="userSpaceOnUse">
<stop stop-color="#BDD634"/>
<stop offset="0.33" stop-color="#B8D435"/>
<stop offset="1" stop-color="#4AA948"/>
</linearGradient>
<linearGradient id="paint1_linear_135_172" x1="980.03" y1="1679.94" x2="980.03" y2="348.464" gradientUnits="userSpaceOnUse">
<stop stop-color="#187F40"/>
<stop offset="1" stop-color="#BBD642"/>
</linearGradient>
<linearGradient id="paint2_linear_135_172" x1="171.016" y1="398.15" x2="868.946" y2="1607" gradientUnits="userSpaceOnUse">
<stop offset="0.05" stop-color="#BDD239"/>
<stop offset="1" stop-color="#128542"/>
</linearGradient>
<linearGradient id="paint3_linear_135_172" x1="474.685" y1="1294.34" x2="474.685" y2="552.074" gradientUnits="userSpaceOnUse">
<stop stop-color="#143D1F"/>
<stop offset="1" stop-color="#1E743B"/>
</linearGradient>
<linearGradient id="paint4_linear_135_172" x1="643.696" y1="174.244" x2="1325.63" y2="174.244" gradientUnits="userSpaceOnUse">
<stop stop-color="#1C753B"/>
<stop offset="0.95" stop-color="#BDD239"/>
</linearGradient>
<linearGradient id="paint5_linear_135_172" x1="198.011" y1="550.998" x2="1223.57" y2="550.998" gradientUnits="userSpaceOnUse">
<stop stop-color="#1C6339"/>
<stop offset="1" stop-color="#36AB4A"/>
</linearGradient>
<linearGradient id="paint6_linear_135_172" x1="534.128" y1="1246.34" x2="1109.28" y2="671.155" gradientUnits="userSpaceOnUse">
<stop stop-color="#6CB545"/>
<stop offset="0.5" stop-color="#1F8742"/>
<stop offset="1" stop-color="#14683E"/>
</linearGradient>
<linearGradient id="paint7_linear_135_172" x1="761.626" y1="1462.78" x2="1294.82" y2="929.587" gradientUnits="userSpaceOnUse">
<stop stop-color="#208F49"/>
<stop offset="1" stop-color="#BED633"/>
</linearGradient>
</defs>
</svg>
