<svg width="70" height="70" viewBox="0 0 70 70" fill="none" xmlns="http://www.w3.org/2000/svg">
<path d="M31.9233 4.375C27.0972 5.33203 22.8726 8.59961 20.7124 13.0019L20.3296 13.7812L18.4018 13.8359C14.5327 13.9727 11.4018 15.3125 8.70849 17.9785C2.24169 24.418 3.3081 35.1504 10.937 40.168C12.3042 41.0703 13.6577 41.6855 15.2847 42.1504C16.2964 42.4238 16.6518 42.4375 23.4878 42.4922L30.6245 42.5332V41.0977V39.6621L23.6929 39.6074C16.3921 39.5664 16.6108 39.5801 14.7378 38.8828C11.4702 37.6523 8.70849 34.6309 7.7788 31.2402C7.35497 29.7227 7.27294 27.4805 7.58739 25.9629C8.38036 21.998 11.2925 18.6484 15.0796 17.3496C17.0347 16.6797 18.5933 16.5566 21.0542 16.8984C21.9429 17.0215 22.394 16.6113 22.9683 15.1758C24.2944 11.8809 27.3433 8.9414 30.6382 7.76562C33.605 6.72656 36.6128 6.72656 39.5522 7.79296C42.8198 8.98242 45.6636 11.7168 47.0854 15.0391C47.687 16.4609 47.7554 16.5703 48.2202 16.7891C48.5894 16.9668 48.8081 16.9668 49.6147 16.8437C53.019 16.2695 56.5601 17.4043 59.1577 19.8652C63.0815 23.5977 63.8745 29.4219 61.0991 34.1523C60.4976 35.1504 58.2554 37.3926 57.2573 37.9941C56.355 38.5137 55.2339 38.9922 54.0581 39.334C53.3608 39.5391 52.3628 39.5801 46.3472 39.6484L39.4429 39.7168L39.4019 41.125L39.3608 42.5332L46.5796 42.4922C53.4839 42.4375 53.8394 42.4238 54.8511 42.1504C60.0054 40.7012 63.8335 36.873 65.2143 31.7871C65.6382 30.2285 65.7476 27.1387 65.4194 25.5527C64.8452 22.668 63.6694 20.3984 61.728 18.334C60.4018 16.9394 59.2534 16.0918 57.4897 15.2441C55.4253 14.2461 54.1401 13.9316 51.6792 13.8496L49.6968 13.7812L49.314 12.9883C47.2632 8.61328 42.6694 5.15429 37.7612 4.30664C36.189 4.0332 33.4683 4.06054 31.9233 4.375Z" fill="#071946"/>
<path d="M34.3706 24.9512C33.728 25.2793 27.808 31.3086 27.726 31.7188C27.5893 32.5254 28.0268 33.2773 28.7924 33.4688C29.558 33.6738 29.8315 33.4961 31.6772 31.6777L33.4956 29.9004V38.3359C33.4956 47.5781 33.4819 47.4961 34.3022 47.9063C34.8217 48.1797 35.1772 48.1797 35.6967 47.9063C36.517 47.4961 36.5034 47.5781 36.5034 38.3359V29.9004L38.3217 31.6777C39.3881 32.7305 40.2631 33.4824 40.4682 33.5234C41.4252 33.7012 42.2456 33.0449 42.2456 32.0879C42.2456 31.541 42.1772 31.459 38.937 28.2051C35.3823 24.6504 35.2045 24.5273 34.3706 24.9512Z" fill="#071946"/>
<path d="M18.5254 51.1191C17.582 51.3515 16.8164 51.9804 16.3242 52.9101C16.0781 53.3476 16.0645 53.7714 16.0645 58.3105C16.0645 63.0957 16.0781 63.2461 16.3652 63.7793C16.5293 64.08 16.8574 64.5175 17.1172 64.7636C18.0605 65.666 17.0762 65.625 35 65.625C52.9238 65.625 51.9394 65.666 52.8828 64.7636C53.1426 64.5175 53.4707 64.08 53.6348 63.7793C53.9219 63.2597 53.9355 63.041 53.9766 58.6796C54.0176 54.8378 53.9902 54.0175 53.7988 53.3886C53.5527 52.5136 52.9648 51.789 52.1719 51.3652L51.6113 51.0644L35.2734 51.0371C26.291 51.0371 18.7578 51.0644 18.5254 51.1191ZM50.9687 58.3378L50.9277 62.6855H35H19.0723L19.0312 58.3378L19.0039 54.0039H35H50.9961L50.9687 58.3378Z" fill="#071946"/>
<path d="M22.0664 56.7246C21.5332 56.957 21.0547 57.6816 21.0547 58.2559C21.0547 59.3223 21.7246 60.0195 22.75 60.0195C23.8437 60.0195 24.5547 59.2266 24.4316 58.1465C24.3359 57.2988 23.7754 56.7246 22.9551 56.6563C22.627 56.6289 22.2305 56.6563 22.0664 56.7246Z" fill="#071946"/>
<path d="M34.2347 57.1348C33.6331 57.5039 33.4144 58.1875 33.6742 58.8301C34.0843 59.7871 33.6742 59.7461 42.0414 59.7461C48.9593 59.7461 49.5882 59.7187 49.848 59.5C50.5999 58.8984 50.6546 58.0098 49.9847 57.3398L49.5199 56.875H42.0824C35.0003 56.875 34.6449 56.8887 34.2347 57.1348Z" fill="#071946"/>
</svg>
