<svg width="61" height="61" viewBox="0 0 61 61" fill="none" xmlns="http://www.w3.org/2000/svg">
<g clip-path="url(#clip0_135_265)">
<path d="M20.7145 0.628906C16.6247 1.08594 12.8278 3.74609 10.988 7.47266C10.2497 8.97266 9.89811 10.2148 9.69889 11.9961C9.62858 12.6523 9.62858 12.6523 9.13639 12.8047C8.29264 13.0508 6.72233 13.8242 5.91374 14.4102C3.10124 16.4023 1.26139 19.2969 0.687175 22.6367C-0.344075 28.6836 3.37077 34.7539 9.23014 36.5938C10.8708 37.0977 11.7145 37.1797 15.652 37.1797H19.3669V40.6367V44.0938H16.2614C13.402 44.0938 13.1442 44.082 13.0856 43.8828C12.8395 43.1211 12.2184 42.1016 11.609 41.4453C9.05436 38.7266 4.85905 38.7148 2.30436 41.4336C-0.988606 44.9258 0.476238 50.4922 5.06999 51.9688C6.05436 52.2734 7.65983 52.2969 8.64421 52.0156C10.6481 51.4297 12.1715 50.0352 12.9684 48.0547L13.1442 47.6211L17.4216 47.5859C21.5231 47.5508 21.7106 47.5391 22.0153 47.3047C22.1911 47.1758 22.4489 46.918 22.5778 46.7422C22.8122 46.4375 22.8239 46.2617 22.8591 41.7969L22.8942 37.1797H25.8122H28.7419V42.4766V47.7852L27.8278 48.1953C26.6559 48.7227 25.32 50 24.7692 51.125C24.1012 52.5195 23.902 54.0547 24.2301 55.4492C24.9216 58.3906 27.4997 60.4297 30.4997 60.4297C33.4997 60.4297 36.0778 58.3906 36.7692 55.4492C37.0973 54.0547 36.8981 52.5195 36.2301 51.125C35.6794 50 34.3434 48.7227 33.1716 48.1953L32.2575 47.7852V42.4766V37.1797H35.1872H38.1051L38.1403 41.7969C38.1755 46.2617 38.1872 46.4375 38.4216 46.7422C38.5505 46.918 38.8083 47.1758 38.9841 47.3047C39.2887 47.5391 39.4762 47.5508 43.5778 47.5859L47.8551 47.6211L48.0309 48.0547C48.4411 49.0625 48.7692 49.5664 49.4841 50.293C50.7848 51.6055 52.2731 52.2266 54.113 52.2148C57.1012 52.1914 59.6325 50.1758 60.3239 47.2461C60.8161 45.1484 60.2301 43.0508 58.695 41.4336C56.1403 38.7148 51.945 38.7266 49.3903 41.4453C48.7809 42.1016 48.1598 43.1211 47.9137 43.8828C47.8551 44.082 47.5973 44.0938 44.738 44.0938H41.6325V40.6367V37.1797H45.3591C49.2848 37.1797 50.1286 37.0977 51.7692 36.5938C57.1012 34.918 60.7458 29.6914 60.4528 24.1133C60.2067 19.1094 57.0192 14.7266 52.3551 12.9805L51.652 12.7109L51.2887 11.6562C50.5153 9.42969 49.4841 7.77734 47.8434 6.125C45.1833 3.45312 42.0426 2.08203 38.2341 1.94141C35.7497 1.84766 33.5348 2.31641 31.4372 3.37109L30.6169 3.78125L29.8551 3.20703C27.863 1.68359 25.9528 0.910156 23.4098 0.617188C22.2262 0.488281 22.0387 0.488281 20.7145 0.628906ZM24.2653 4.32031C25.1325 4.50781 26.5036 5.11719 27.277 5.65625C27.57 5.85547 28.2262 6.41797 28.7419 6.89844C29.6559 7.75391 29.6794 7.76562 30.3005 7.76562C30.8395 7.76562 31.0387 7.69531 31.6598 7.29688C33.5348 6.08984 35.1169 5.55078 37.1794 5.45703C39.3825 5.35156 41.2575 5.78516 43.0622 6.81641C45.863 8.41016 47.5153 10.7773 48.4411 14.4805C48.6403 15.3008 49.0622 15.6406 50.3278 16.0156C52.777 16.7539 54.5114 18.0781 55.7419 20.1758C57.945 23.9375 57.1012 28.7188 53.7262 31.5898C52.8473 32.3398 50.9606 33.2539 49.8122 33.4766C49.0153 33.6406 46.6833 33.6641 30.4997 33.6641C9.69889 33.6641 11.1637 33.7227 9.11296 32.7266C6.72233 31.5664 5.08171 29.6094 4.34343 27.0195C4.00358 25.8359 3.98014 23.6797 4.28483 22.5312C5.17546 19.2031 7.69499 16.7539 11.07 15.9219C12.8981 15.4648 13.1559 15.1836 13.1559 13.5078C13.1559 10.8008 13.9528 8.67969 15.6403 6.88672C17.1169 5.30469 18.945 4.41406 21.4176 4.08594C21.9684 4.01562 23.4567 4.13281 24.2653 4.32031ZM8.11686 43.168C9.14811 43.6367 9.73405 44.4688 9.83952 45.6289C9.99186 47.2461 8.62077 48.6992 6.94499 48.6992C5.73796 48.6992 4.81218 48.0781 4.27311 46.918C3.41764 45.0664 4.84733 42.9219 6.94499 42.9219C7.34342 42.9219 7.78874 43.0156 8.11686 43.168ZM55.2262 43.168C56.2575 43.6367 56.8434 44.4688 56.9489 45.6289C57.1012 47.2461 55.7301 48.6992 54.0544 48.6992C52.8473 48.6992 51.9216 48.0781 51.3825 46.918C50.527 45.0664 51.9567 42.9219 54.0544 42.9219C54.4528 42.9219 54.8981 43.0156 55.2262 43.168ZM31.6716 51.3711C32.7028 51.8398 33.2887 52.6719 33.3942 53.832C33.5466 55.4492 32.1755 56.9023 30.4997 56.9023C29.2926 56.9023 28.3669 56.2812 27.8278 55.1211C26.9723 53.2695 28.402 51.125 30.4997 51.125C30.8981 51.125 31.3434 51.2188 31.6716 51.3711Z" fill="#CDD1DA"/>
</g>
<defs>
<clipPath id="clip0_135_265">
<rect width="60" height="60" fill="white" transform="translate(0.5 0.5)"/>
</clipPath>
</defs>
</svg>
