<svg width="61" height="61" viewBox="0 0 61 61" fill="none" xmlns="http://www.w3.org/2000/svg">
<path d="M29.0938 4.87103C28.6719 5.15228 27.4648 5.914 26.3984 6.55853C21.2422 9.67572 16.2734 12.1249 12.9219 13.2031C10.6953 13.9296 10.5898 13.9765 10.25 14.4218L9.93359 14.832L9.89844 25.6484L9.875 36.4648L10.5195 37.7304C10.8828 38.4218 11.668 39.7226 12.2656 40.6367C16.4844 46.9999 21.7812 51.746 28.1562 54.8632C30.5938 56.0585 30.4648 56.0585 33.2188 54.6757C36.9453 52.8007 40.2031 50.4453 43.2148 47.4335C46.2734 44.3867 48.8984 40.8828 50.5742 37.6132L51.0664 36.6523L51.1016 25.871C51.125 15.5468 51.1133 15.0781 50.9141 14.6796C50.6094 14.1054 50.1523 13.8359 49.0039 13.5195C45.6172 12.5937 39.3477 9.49994 33.4297 5.83197C30.9805 4.32025 31.0859 4.36713 30.418 4.36713C29.9492 4.36713 29.7266 4.44916 29.0938 4.87103ZM32.9375 9.86322C38.1406 12.9921 42.4531 15.1484 46.0859 16.4492L47.3164 16.8828L47.3516 26.2929L47.375 35.7148L46.6484 36.9453C42.9336 43.1679 37.3672 48.4765 31.5078 51.3828L30.4883 51.8867L29.1172 51.1835C26.0352 49.6015 23.1875 47.4687 20.4219 44.6913C17.8672 42.1249 15.7695 39.4296 14.1641 36.6406L13.625 35.6913V26.3163V16.9413L14.832 16.496C17.7266 15.4413 20.7734 13.9999 24.3945 11.9843C26.2695 10.9531 29.4688 9.06635 30.0781 8.64447C30.207 8.55072 30.3828 8.46869 30.4766 8.46869C30.5586 8.46869 31.6602 9.08979 32.9375 9.86322Z" fill="#CDD1DA"/>
<path d="M37.1207 24.2422C36.9332 24.3359 34.941 26.2461 32.7028 28.4844L28.6246 32.5508L26.3746 30.3008C25.1325 29.0703 23.9606 28.0039 23.7848 27.9336C23.2457 27.7226 22.6012 27.7812 22.1676 28.0742C21.3121 28.6484 21.0192 29.5859 21.4176 30.4297C21.5231 30.6406 22.9879 32.1875 24.6754 33.8633C27.3121 36.4883 27.8043 36.9336 28.191 37.0039C29.2575 37.2031 29.0934 37.332 34.4489 31.9883C37.1793 29.2695 39.4879 26.8789 39.5817 26.6797C39.9801 25.8359 39.6871 24.8984 38.8317 24.3242C38.3629 24.0078 37.6364 23.9726 37.1207 24.2422Z" fill="#CDD1DA"/>
</svg>
