<svg width="70" height="70" viewBox="0 0 70 70" fill="none" xmlns="http://www.w3.org/2000/svg">
<g clip-path="url(#clip0_135_450)">
<path d="M3.34961 0.123024C2.11914 0.423805 0.998047 1.3535 0.410156 2.52928L0.0683594 3.21287V21.875V40.5371L0.382812 41.1523C0.861328 42.1367 1.4082 42.7109 2.35156 43.2168L3.21289 43.6816L10.3633 43.7227L17.5 43.7637V46.6895V49.6289H16.0645H14.6289V51.0645V52.5H20.4395H26.25V51.0645V49.6289L23.3516 49.6016L20.4395 49.5605L20.3984 46.6621L20.3711 43.75H21.875H23.3789V42.3144V40.8789H13.7949C5.3457 40.8789 4.15625 40.8516 3.75977 40.6602C2.81641 40.209 2.87109 41.4531 2.87109 21.875C2.87109 2.29686 2.81641 3.541 3.75977 3.08982C4.16992 2.89842 6.71289 2.87107 29.1074 2.87107C55.9727 2.87107 54.6328 2.83006 55.1523 3.56834C55.3438 3.85545 55.3711 5.11326 55.3711 17.2539V30.625H56.875H58.3789L58.3516 17.0488C58.3105 4.21092 58.2969 3.44529 58.0508 2.83006C57.709 1.92772 56.6289 0.792946 55.7539 0.396461L55.0293 0.0683365L29.3945 0.0409927C15.2988 0.0409927 3.58203 0.0683365 3.34961 0.123024Z" fill="#071946"/>
<path d="M20.4941 6.05659C18.2383 6.90425 17.0215 9.24214 17.6914 11.416L17.9102 12.0996L14.998 14.998L12.0996 17.9101L13.125 18.9355L14.1504 19.9609L17.0352 17.0761L19.9199 14.1914L20.9043 14.4238C21.8203 14.6562 21.9297 14.6562 22.8457 14.4238L23.8301 14.1914L25.9766 16.3378L28.1367 18.498L27.9453 19.0449C27.6855 19.7695 27.6992 21 27.9863 21.875C28.2734 22.7773 29.2031 23.83 30.1328 24.2949C31.1309 24.8007 32.5938 24.8828 33.6602 24.4726C35.6699 23.7207 36.8457 21.4238 36.2988 19.3457L36.0801 18.539L38.2402 16.3789L40.4141 14.205L41.2754 14.4375C41.8496 14.5742 42.3691 14.6289 42.7793 14.5605C44.3652 14.3281 45.8145 13.207 46.3477 11.7851C46.7578 10.7187 46.6758 9.25581 46.1699 8.25776C44.5566 5.09956 39.9492 5.08589 38.4316 8.24409C37.8848 9.37886 37.7891 10.1445 38.0625 11.2246L38.2949 12.0859L36.1348 14.246L33.9746 16.4062L33.0449 16.1875C32.1426 15.955 31.6504 15.996 30.4199 16.3378C30.2012 16.4062 29.6953 15.9687 28 14.2597L25.8398 12.0996L26.0586 11.416C26.6738 9.46089 25.6895 7.27339 23.7617 6.27534C23.0234 5.89253 21.2461 5.78315 20.4941 6.05659ZM22.5723 8.9687C23.8438 9.62495 23.3242 11.621 21.8887 11.621C20.4668 11.621 19.8926 9.748 21.1094 9.00972C21.6289 8.69526 22.0254 8.68159 22.5723 8.9687ZM43.2852 9.17378C43.9688 9.80269 43.791 11.1015 42.9844 11.4707C41.6582 12.0722 40.4277 10.8554 41.0293 9.52925C41.3848 8.73628 42.6152 8.54487 43.2852 9.17378ZM33.0996 19.4003C33.7695 20.0839 33.5918 21.2187 32.7441 21.6699C31.8828 22.1484 30.8301 21.6152 30.666 20.6035C30.4609 19.2773 32.1426 18.4433 33.0996 19.4003Z" fill="#071946"/>
<path d="M5.87891 26.25V27.7539H7.31445H8.75V26.25V24.7461H7.31445H5.87891V26.25Z" fill="#071946"/>
<path d="M39.8814 26.4004C34.0025 27.2617 29.0806 31.3223 27.1118 36.9551C25.772 40.7969 26.0181 45.1035 27.8091 48.8906C28.5884 50.5176 29.3404 51.6113 30.6118 52.9512C33.2915 55.7676 36.6001 57.4082 40.565 57.8457C44.2974 58.2695 48.563 57.0801 51.5845 54.7695L52.1861 54.3047L53.7173 55.8359L55.2486 57.3672L54.9478 57.6406C54.3326 58.1875 53.8677 58.9531 53.8677 59.459C53.8677 59.9102 54.1548 60.2383 58.8306 64.9141C63.5474 69.6309 63.8208 69.8906 64.3814 69.959L64.9693 70.041L67.4849 67.5254C69.9048 65.1055 70.0005 64.9824 70.0005 64.4629C70.0005 63.9297 69.8912 63.8066 64.9693 58.8984C60.2388 54.1543 59.9244 53.8672 59.4595 53.8672C58.9536 53.8672 58.188 54.3184 57.6411 54.9473L57.3677 55.248L55.8365 53.7168L54.3052 52.1856L54.7701 51.584C56.4654 49.3691 57.5454 46.5391 57.8462 43.5449C58.5025 37.1465 54.9888 30.8574 49.1099 27.9043C46.4302 26.5508 42.8208 25.9629 39.8814 26.4004ZM45.104 29.5313C49.5747 30.6113 53.1294 33.9746 54.4966 38.4863C54.8521 39.6211 54.8794 39.9082 54.8794 42.041C54.8931 44.0781 54.8521 44.502 54.5786 45.4453C53.5122 49.1231 51.1333 52.0078 47.7564 53.7168C44.9947 55.0977 41.0025 55.3711 38.0357 54.3594C31.5279 52.1445 27.8775 45.4043 29.6001 38.7734C30.7212 34.4531 34.3032 30.8438 38.6509 29.6543C40.77 29.0664 42.9849 29.0254 45.104 29.5313ZM65.4615 65.4473L64.4634 66.4453L60.9497 62.9316L57.4224 59.4043L58.4068 58.4199L59.4048 57.4219L62.9185 60.9355L66.4458 64.4629L65.4615 65.4473Z" fill="#071946"/>
<path d="M42.2461 33.5234V34.959L43.0801 35.0547C44.7891 35.2461 46.6348 36.1895 47.7148 37.4336C48.4258 38.2266 49.3145 40.0176 49.4238 40.8379C49.4648 41.207 49.5469 41.6582 49.5742 41.8633L49.6563 42.2461H51.0918H52.541L52.4453 41.2754C51.9668 36.5176 47.9883 32.5254 43.3398 32.1699L42.2461 32.0879V33.5234Z" fill="#071946"/>
<path d="M5.87891 32.457C5.87891 34.6992 6.07031 35.4102 6.94531 36.3945C7.28711 36.7637 7.875 37.2285 8.25781 37.4336C8.91406 37.7754 9.0918 37.8027 11.0469 37.8437L13.125 37.8984V36.4629V35.0273L11.3477 34.9727C9.625 34.9316 9.57031 34.918 9.20117 34.5488C8.83203 34.1797 8.81836 34.125 8.77734 32.4023L8.72266 30.625H7.30078H5.87891V32.457Z" fill="#071946"/>
</g>
<defs>
<clipPath id="clip0_135_450">
<rect width="70" height="70" fill="white"/>
</clipPath>
</defs>
</svg>
