<svg width="70" height="70" viewBox="0 0 70 70" fill="none" xmlns="http://www.w3.org/2000/svg">
<path d="M40.0449 2.31055C39.7852 2.51562 39.6074 3.02148 39.1699 4.79883C38.8281 6.16602 38.541 7.05469 38.418 7.10938C38.3086 7.16406 37.7207 7.41016 37.1191 7.65625C36.5176 7.88867 35.8613 8.14844 35.6699 8.23047C35.3555 8.36719 35.123 8.25781 33.373 7.19141C32.2656 6.53516 31.2676 6.01562 31.0625 6.01562C30.8027 6.01562 30.2832 6.43945 28.957 7.75195C27.9863 8.70898 27.1523 9.65234 27.1113 9.83008C27.0566 10.0352 27.1113 10.3223 27.2344 10.5137C27.3438 10.7051 27.9043 11.6484 28.4922 12.5918L29.5313 14.3145L28.998 15.4629C28.6973 16.0918 28.4102 16.7754 28.3691 16.9941C28.3145 17.1992 28.1641 17.418 28.041 17.4863C27.918 17.541 26.8926 17.8281 25.7441 18.1152C24.3086 18.457 23.5977 18.7031 23.4199 18.8945C23.2012 19.1406 23.1738 19.4551 23.1738 21.8203C23.1738 24.0762 23.2012 24.5 23.3926 24.6914C23.5156 24.8008 24.6504 25.1699 25.9082 25.4844L28.2051 26.0586L28.5059 26.9336C28.6699 27.4258 28.9707 28.1367 29.1621 28.5332L29.5313 29.2441L28.3008 31.1855C27.4395 32.5527 27.0703 33.2637 27.0703 33.5508C27.0703 33.9199 27.3301 34.2344 28.8203 35.7109C29.7773 36.6543 30.6934 37.4746 30.8711 37.5293C31.1172 37.5977 31.6367 37.3379 33.2363 36.3672L35.3008 35.1094L36.3398 35.6016C36.9277 35.8613 37.6387 36.1758 37.9395 36.2715L38.4863 36.4629L39.0332 38.6641C39.334 39.8809 39.6895 41.002 39.8125 41.1523C40.0449 41.4121 40.2227 41.4258 42.7656 41.4258C45.2539 41.4258 45.5 41.3984 45.7188 41.166C45.8418 41.0293 46.1973 39.9629 46.4981 38.8145C46.7852 37.6523 47.0859 36.627 47.1406 36.5176C47.1953 36.4219 47.7148 36.1621 48.3027 35.9434C48.8906 35.7383 49.5742 35.4375 49.834 35.2734L50.3125 34.9727L52.1992 36.1348C53.2246 36.7637 54.209 37.3242 54.3731 37.3789C54.8516 37.5293 55.3301 37.1875 57.0527 35.4375C58.2148 34.248 58.6523 33.7148 58.6523 33.4824C58.6523 33.291 58.1055 32.2383 57.4219 31.1309L56.1914 29.1074L56.5879 28.3281C56.793 27.9043 57.0801 27.2344 57.2168 26.8652C57.3535 26.4824 57.5313 26.1133 57.6133 26.0312C57.6953 25.9355 58.7344 25.6348 59.9238 25.3613C62.7676 24.6777 62.6172 24.8828 62.6172 21.793C62.6172 20.3301 62.5625 19.3047 62.4668 19.0859C62.2617 18.6621 62.0156 18.5664 59.7461 18.0332C58.7344 17.8008 57.8047 17.5547 57.6816 17.4863C57.5723 17.4316 57.3945 17.1172 57.2988 16.7891C57.2031 16.4609 56.916 15.7637 56.6699 15.2305L56.2324 14.2598L57.3809 12.3867C58.0098 11.3613 58.5566 10.3223 58.6113 10.1035C58.6797 9.7207 58.5703 9.55664 56.8477 7.84766C55.4121 6.41211 54.9336 6.01562 54.6465 6.01562C54.4277 6.01562 53.4981 6.49414 52.3223 7.23242C50.6816 8.23047 50.2988 8.4082 50.0938 8.29883C49.9434 8.2168 49.2324 7.88867 48.4805 7.58789L47.127 7.02734L46.7305 5.40039C46.0742 2.63867 45.9785 2.39258 45.5957 2.21484C45.3633 2.10547 44.3789 2.05078 42.8066 2.05078C40.6055 2.05078 40.332 2.07812 40.0449 2.31055ZM44.7891 6.24805C45.0898 7.42383 45.418 8.50391 45.5273 8.64062C45.6367 8.77734 46.1016 8.99609 46.5527 9.10547C47.0039 9.21484 47.9883 9.61133 48.7539 9.98047C49.5059 10.3633 50.2168 10.6641 50.3398 10.6641C50.4492 10.6641 51.4199 10.1445 52.5 9.50195L54.4688 8.32617L55.3984 9.25586C55.9043 9.76172 56.3281 10.2266 56.3281 10.2949C56.3281 10.3633 55.8359 11.2383 55.2344 12.2363C54.6328 13.2344 54.1406 14.2051 54.1406 14.3828C54.1406 14.5605 54.3457 15.1074 54.6055 15.5859C54.8652 16.0781 55.2754 17.0488 55.5078 17.7324C55.7539 18.4297 56.0273 19.0586 56.1367 19.1543C56.2734 19.2637 60.0742 20.2207 60.4707 20.2344C60.5254 20.2344 60.5664 20.877 60.5664 21.6699C60.5664 22.4629 60.5254 23.1055 60.4707 23.1055C59.9648 23.1191 56.2598 24.0898 56.0684 24.2539C55.9316 24.377 55.7539 24.8008 55.6582 25.1973C55.5762 25.6074 55.1934 26.5508 54.8242 27.3164C54.4414 28.0684 54.1406 28.834 54.1406 28.998C54.1406 29.1484 54.6328 30.1055 55.2344 31.1035C55.8359 32.1016 56.3281 32.9766 56.3281 33.0449C56.3281 33.1133 55.9043 33.5781 55.3984 34.084L54.4688 35.0137L52.541 33.9062C51.4883 33.3047 50.5176 32.8125 50.3809 32.8125C50.2441 32.8125 49.5059 33.1133 48.7539 33.4961C47.9883 33.8652 47.0039 34.2617 46.5664 34.3711C46.1152 34.4805 45.6641 34.6719 45.541 34.7949C45.4316 34.9043 45.1172 35.9707 44.8438 37.1602L44.3652 39.3066L42.9707 39.3477C42.1914 39.3613 41.5625 39.3477 41.5625 39.3066C41.5625 38.9102 40.5645 34.9043 40.4277 34.7812C40.3457 34.6855 39.6758 34.4258 38.9648 34.1797C38.2539 33.9473 37.2832 33.5371 36.8184 33.2773C36.3535 33.0176 35.8613 32.8125 35.6973 32.8125C35.5469 32.8125 34.5625 33.332 33.5234 33.9609L31.6094 35.1094L30.625 34.1113L29.6406 33.127L30.8438 31.2402C31.6367 29.9824 32.0332 29.2305 32.0195 28.9844C32.0195 28.7793 31.8145 28.2461 31.5547 27.8086C31.3086 27.3711 30.9258 26.4551 30.6934 25.7715C30.4609 25.1016 30.2148 24.4316 30.1328 24.3086C30.0371 24.1309 29.3672 23.9258 27.7813 23.5566L25.5664 23.0508V21.6699V20.2754L27.5898 19.8242C28.6973 19.5781 29.7363 19.3047 29.9004 19.2363C30.1328 19.127 30.2969 18.8125 30.5703 17.9238C30.7617 17.2812 31.1992 16.2422 31.5137 15.6133C32.0059 14.6836 32.0879 14.4102 31.9922 14.1504C31.9238 13.959 31.3359 13.0566 30.6934 12.1133C30.0508 11.1836 29.5313 10.3633 29.5313 10.2949C29.5313 10.2266 29.9551 9.76172 30.4746 9.24219L31.4043 8.3125L33.3184 9.48828C34.3711 10.1309 35.3418 10.6641 35.4648 10.6641C35.6016 10.6641 36.2715 10.3906 36.9551 10.0488C37.6387 9.70703 38.6094 9.29688 39.1152 9.14648C39.6211 8.99609 40.1543 8.73633 40.3047 8.57227C40.4824 8.36719 40.7148 7.61523 41.0293 6.17969L41.4805 4.10156H42.875H44.2695L44.7891 6.24805Z" fill="#071946"/>
<path d="M41.3306 15.2303C40.1684 15.5174 39.102 16.119 38.227 17.0076C37.311 17.9237 36.7642 18.8944 36.436 20.1658C35.479 23.8709 38.104 27.7264 41.9731 28.3143C46.2934 28.9705 50.1626 25.1561 49.5337 20.8358C48.9595 16.8846 45.1724 14.3006 41.3306 15.2303ZM44.8579 17.5272C47.6743 18.826 48.4399 22.5037 46.3481 24.7869C44.5845 26.7147 41.7407 26.8514 39.8403 25.1151C38.7739 24.1444 38.3638 23.2147 38.3638 21.7381C38.3501 20.7674 38.4184 20.453 38.7192 19.7967C39.0884 18.9901 39.9634 18.033 40.6743 17.6776C41.9731 16.994 43.5727 16.9393 44.8579 17.5272Z" fill="#071946"/>
<path d="M16.5703 27.3847C16.1738 27.8085 16.1738 28.4511 16.584 28.8065C16.748 28.9569 17.2676 29.3261 17.7461 29.6268L18.5937 30.16L17.4043 30.5429C15.7227 31.0761 12.8926 32.5116 11.3477 33.6054C9.69336 34.7811 7.42383 37.0507 6.28906 38.6639C5.08594 40.3866 3.96484 42.4784 3.96484 43.0253C3.96484 43.7772 4.66211 44.2284 5.38672 43.9413C5.50977 43.8866 5.98828 43.121 6.43945 42.2323C8.81836 37.5702 12.8105 34.0975 17.6777 32.4843C19.25 31.9647 19.25 31.9647 18.5391 33.2772C18.1836 33.8925 17.9102 34.5761 17.9102 34.7811C17.9102 35.6561 19.0723 35.9979 19.7148 35.3007C20.2207 34.7538 22.2715 31.2675 22.3672 30.7753C22.4219 30.5018 22.3809 30.2421 22.2441 30.0233C21.9297 29.5585 17.7324 27.0702 17.2539 27.0702C17.0215 27.0702 16.748 27.1932 16.5703 27.3847Z" fill="#071946"/>
<path d="M21.752 35.6699C21.6016 35.8203 21.3282 36.6406 21.0411 37.789C20.6719 39.3203 20.5352 39.6621 20.3028 39.7304C20.1524 39.7714 19.6192 40.0039 19.1133 40.2226L18.1973 40.6328L16.6251 39.6621C15.6543 39.0742 14.8887 38.6914 14.6563 38.6914C14.1368 38.6914 11.1836 41.6308 11.1836 42.1503C11.1836 42.3418 11.6211 43.2031 12.168 44.0781L13.1524 45.6503L12.6329 46.8671L12.127 48.0839L10.2813 48.5351C9.16021 48.8085 8.3399 49.082 8.1895 49.2324C7.95708 49.4648 7.92974 49.7246 7.92974 51.666C7.92974 54.4414 7.88872 54.373 10.1172 54.8925C10.9786 55.0976 11.7989 55.289 11.9219 55.3164C12.045 55.3574 12.1954 55.5214 12.2364 55.6855C12.2911 55.8496 12.5098 56.3964 12.7422 56.8886L13.1387 57.791L12.1817 59.3632C11.5528 60.375 11.211 61.0722 11.211 61.332C11.211 61.6601 11.4844 62.0156 12.7559 63.2734C13.918 64.4218 14.3829 64.8046 14.6426 64.8046C14.8477 64.8046 15.6954 64.3671 16.6114 63.7929L18.2247 62.7949L19.1954 63.2324C19.7286 63.4785 20.2618 63.6972 20.3711 63.7382C20.5079 63.7929 20.7403 64.4492 21.0411 65.6796C21.6563 68.1953 21.5333 68.1132 24.377 68.0585C27.002 68.0039 26.879 68.0996 27.4122 65.8027C27.8223 64.0527 27.9454 63.7109 28.2051 63.7109C28.3008 63.7109 28.8067 63.5058 29.3262 63.2597L30.2833 62.7949L31.6504 63.6562C33.2774 64.6816 33.6602 64.8593 34.0704 64.7636C34.2481 64.7089 35.0547 64.0117 35.8614 63.1914C36.9551 62.0703 37.3243 61.6191 37.3243 61.3457C37.3243 61.1543 36.8868 60.2929 36.3125 59.3769L35.3145 57.7636L35.6153 57.1484C35.7793 56.8066 35.9981 56.3007 36.0938 56.0136C36.2852 55.3984 36.3536 55.3574 38.3907 54.8789C40.6329 54.3457 40.5372 54.496 40.5372 51.7617C40.5372 49.6835 40.5098 49.4785 40.2637 49.2324C40.086 49.0546 39.3204 48.7949 38.1583 48.5078C36.4356 48.0703 36.3125 48.0156 36.2168 47.6738C36.1622 47.4824 35.9434 46.9492 35.711 46.498L35.3145 45.6914L36.3125 44.0781C36.8731 43.1894 37.3243 42.3144 37.3243 42.123C37.3243 41.8906 36.9004 41.3574 35.793 40.2363C34.5352 38.9648 34.1934 38.6914 33.8653 38.6914C33.6055 38.6914 32.9083 39.0332 31.8965 39.6621L30.3243 40.6191L29.1075 40.1132C28.4239 39.8398 27.8633 39.5117 27.836 39.3886C27.795 39.2656 27.6036 38.4589 27.4122 37.5976C26.8926 35.3691 26.961 35.4101 24.1856 35.4101C22.2442 35.4101 21.9844 35.4375 21.752 35.6699ZM25.5528 39.3339C26.0313 41.5898 26.045 41.6171 27.1934 41.9589C27.7129 42.123 28.5606 42.4648 29.0665 42.7246C29.5723 42.9843 30.0782 43.2031 30.2012 43.2031C30.3243 43.2031 31.1036 42.7656 31.9239 42.246L33.4278 41.289L34.0977 41.9589L34.7676 42.6289L33.8653 44.0918C33.3594 44.8984 32.9493 45.6914 32.9493 45.8828C32.9493 46.0605 33.127 46.539 33.3458 46.9355C33.5645 47.3183 33.92 48.1523 34.1114 48.7812C34.5215 50.0664 34.4942 50.039 36.0938 50.3808C36.6543 50.5039 37.3516 50.6543 37.625 50.7363L38.1172 50.8593L38.1719 51.8164C38.1993 52.3496 38.1993 52.7734 38.1993 52.7734C37.8575 52.7734 35.0001 53.539 34.8497 53.6757C34.7129 53.7988 34.5762 54.1132 34.5215 54.3867C34.4805 54.6601 34.1661 55.4668 33.8243 56.1777C33.4961 56.875 33.2227 57.5722 33.2227 57.7089C33.2227 57.8457 33.6465 58.625 34.1661 59.4453L35.1094 60.9492L34.4395 61.6054L33.7696 62.2617L32.0606 61.3867L30.3653 60.498L29.4356 61.0039C28.9297 61.2773 28.0684 61.6328 27.5215 61.7968C26.9883 61.9609 26.4551 62.1933 26.3594 62.3164C26.2501 62.4394 25.9493 63.3007 25.6895 64.2168L25.2247 65.8984H24.2403H23.2696L22.9961 64.6953C22.8458 64.039 22.6817 63.2871 22.627 63C22.5176 62.3984 22.1075 62.0019 21.4786 61.8789C21.2188 61.8378 20.4258 61.5234 19.7149 61.1816C19.004 60.8398 18.3477 60.5664 18.2657 60.5664C18.17 60.5664 17.4043 61.0039 16.5567 61.5371L14.9981 62.5078L14.3282 61.8378L13.6719 61.1679L14.629 59.6777C15.1485 58.8437 15.586 58.0371 15.586 57.873C15.586 57.6953 15.3672 57.1621 15.1075 56.6699C14.8477 56.1777 14.5196 55.3574 14.3555 54.8378C14.2051 54.3183 13.9864 53.8261 13.877 53.7304C13.7676 53.6347 12.92 53.4023 12.004 53.1972L10.3223 52.8281L10.2813 51.8574C10.254 51.0097 10.2813 50.873 10.4864 50.8046C10.6231 50.7773 11.3751 50.5996 12.1543 50.4355C13.836 50.0664 14.0821 49.8886 14.4239 48.7402C14.5469 48.289 14.8751 47.5097 15.1211 47.0039C15.3809 46.498 15.586 45.9785 15.586 45.8418C15.586 45.705 15.1485 44.9121 14.629 44.0918L13.6719 42.5878L14.3418 41.9316L14.9981 41.2617L16.5567 42.2324C17.4043 42.7656 18.1973 43.2031 18.293 43.2031C18.4024 43.2031 18.8126 43.0253 19.1954 42.8066C19.5782 42.5878 20.3848 42.2324 20.9864 42.041C22.2852 41.6035 22.504 41.4394 22.627 40.7695C22.6817 40.496 22.8458 39.7304 22.9961 39.0605L23.2696 37.8711H24.254H25.2247L25.5528 39.3339Z" fill="#071946"/>
<path d="M23.2419 46.2109C22.2028 46.4297 21.0134 47.1133 20.2477 47.9199C18.4157 49.8477 18.1286 52.623 19.5368 54.7832C20.1657 55.7676 20.8356 56.3418 22.0114 56.916C22.8317 57.3125 23.0095 57.3535 24.2673 57.3535C25.5934 57.3535 25.6892 57.3262 26.6735 56.8477C29.8181 55.2891 30.8571 51.5977 28.9841 48.6855C27.7946 46.8535 25.32 45.7871 23.2419 46.2109ZM25.7028 48.4121C26.4548 48.7539 27.1384 49.3828 27.5212 50.1074C27.9313 50.873 27.9313 52.4727 27.5212 53.2656C26.8649 54.4961 25.8669 55.125 24.4313 55.207C23.6384 55.2617 23.4059 55.207 22.7634 54.9062C20.5622 53.8125 20.0427 51.1738 21.6696 49.2461C22.5446 48.207 24.3903 47.8105 25.7028 48.4121Z" fill="#071946"/>
<path d="M61.7415 38.8281C59.7455 38.9238 59.6908 38.9238 59.3763 39.2929C59.0208 39.7031 58.9935 39.8945 59.2122 40.373C59.4447 40.8925 59.8685 41.0019 61.2767 40.9199L62.5482 40.8515L61.9329 41.4941C58.638 44.9394 53.429 47.6875 48.1927 48.7402C47.222 48.9453 46.306 49.205 46.183 49.3144C45.8275 49.6425 45.8685 50.3398 46.2787 50.7226C46.5794 51.0097 46.7025 51.0234 47.4681 50.955C48.6439 50.8457 51.7747 50.0253 53.3333 49.4238C55.1244 48.7402 57.3802 47.5781 58.9935 46.5253C60.388 45.6093 62.7669 43.7226 63.5052 42.9433C63.8607 42.5605 63.9154 42.5332 64.0111 42.7519C64.0521 42.8886 64.1068 43.4492 64.1068 43.996C64.1204 44.871 64.1615 45.0351 64.4622 45.3222C64.8997 45.7597 65.474 45.7734 65.8841 45.3359C66.1986 45.0078 66.1986 44.9668 66.1439 42.2597C66.1029 39.7441 66.0755 39.4843 65.8158 39.1425C65.474 38.6914 65.1322 38.664 61.7415 38.8281Z" fill="#071946"/>
</svg>
