<svg width="61" height="61" viewBox="0 0 61 61" fill="none" xmlns="http://www.w3.org/2000/svg">
<g clip-path="url(#clip0_135_245)">
<path d="M11.5742 0.617172C8.59766 0.792953 5.39844 1.30858 3.24219 1.96483L2.26953 2.2578L2.03516 3.05467C1.13281 6.06639 0.5 10.4023 0.5 13.4726V14.3281H1.35547H2.22266L2.30469 12.5C2.33984 11.5039 2.45703 10.0625 2.55078 9.31248C2.80859 7.34373 3.51172 3.8867 3.69922 3.6992C3.73438 3.67577 4.14453 3.54686 4.625 3.41795C12.3594 1.40233 21.0195 2.11717 27.2891 5.30467C27.9102 5.6328 28.9297 6.23045 29.5508 6.64061C30.6523 7.37889 32.7617 9.14842 33.0078 9.54686C33.1133 9.72264 32.9492 9.9453 31.8828 11.0117L30.6172 12.2773L29.7734 11.4453L28.918 10.6133L27.6289 11.1172C26.9258 11.3984 26.2461 11.6211 26.1289 11.6328C26.0117 11.6328 25.3789 11.4922 24.7344 11.3164L23.5508 11L22.8359 10.1211C22.4375 9.64061 22.0156 9.11327 21.875 8.9492L21.6289 8.66795L18.6523 9.45311C17.0117 9.89842 15.6641 10.2617 15.6406 10.2851C15.6172 10.3086 15.5 10.9648 15.3711 11.7617L15.1367 13.2148L14.1758 14.1875L13.2031 15.1601L11.75 15.3945C10.9531 15.5234 10.2852 15.6406 10.2734 15.6523C10.2266 15.6992 8.70312 21.4414 8.70312 21.5703C8.70312 21.6406 9.21875 22.1211 9.85156 22.625L11 23.5625L11.3281 24.8867L11.6562 26.2226L11.1289 27.5703L10.6016 28.918L11.4336 29.7734L12.2773 30.6172L10.9766 31.918L9.67578 33.2187L8.65625 32.0703C6.74609 29.9023 5.38672 27.7461 4.37891 25.2851C3.32422 22.7187 2.59766 19.707 2.41016 17.1055L2.33984 16.0859H1.48438H0.617188V16.6953C0.617188 17.6211 1.03906 20.293 1.42578 21.8867C2.53906 26.4336 4.71875 30.4883 7.77734 33.7109C9.89844 35.9609 14.9258 39.8633 24.8164 46.9531C26.8672 48.4297 28.8125 49.7656 29.1172 49.918C29.9141 50.3164 30.8984 50.4687 31.6953 50.3164C32.8555 50.1055 33.3945 49.7539 34.918 48.2773L36.3477 46.8828L36.4766 47.3867C37.1914 50.2461 39.9805 54.3359 43.9648 58.4258C44.9609 59.4336 45.7812 60.2539 45.8047 60.2305C45.8281 60.2187 46.0859 59.1758 46.3789 57.9219C46.6719 56.6797 46.9297 55.6367 46.9414 55.6133C46.9648 55.6015 49.9531 56.668 53.5742 57.9922C57.207 59.3047 60.207 60.3594 60.2422 60.3359C60.2773 60.3008 59.3633 56.9726 58.2266 52.9297C57.0781 48.8984 56.1758 45.5351 56.1992 45.4531C56.2344 45.3828 57.207 45.0078 58.3789 44.6211L60.5 43.9297L59.4805 42.8867C55.7188 39.0898 51.3242 36.1719 48.5703 35.6328C48.207 35.5625 47.8789 35.4805 47.8555 35.457C47.8203 35.4453 48.1953 35.0117 48.6875 34.5078C49.5312 33.6406 50.0586 32.8203 50.2344 32.0937C50.4102 31.3555 50.3281 30.1719 50.0352 29.4687C49.7773 28.8125 44.3984 21.125 44.2109 21.125C44.1641 21.125 43.8359 21.3359 43.4609 21.6055L42.793 22.0859L43.0742 22.4492C44.2812 24.0664 48.3359 29.8437 48.4297 30.0898C48.6289 30.6055 48.5703 31.6719 48.3125 32.1875C48.1602 32.5156 45.4883 35.2578 40.2617 40.4844C32.5039 48.2187 32.4219 48.3008 31.7539 48.4883C31.0742 48.6875 30.6641 48.664 29.9727 48.3711C28.8594 47.914 11.0938 34.7656 11.0586 34.3672C11.0469 34.332 11.5977 33.7578 12.2773 33.0781L13.5078 31.8476L14.2578 32.5976L15.0195 33.3476L16.4258 32.8086L17.832 32.2695L19.1328 32.6328L20.4336 32.9961L21.3828 34.1562C22.0273 34.9648 22.3789 35.3047 22.5195 35.2695C22.625 35.2461 23.9492 34.8945 25.4609 34.4844C26.9727 34.0859 28.25 33.7226 28.2969 33.6758C28.3438 33.6406 28.4727 32.9609 28.5781 32.164L28.7891 30.7226L29.7969 29.75L30.793 28.7773L31.9648 28.625C32.6094 28.543 33.2656 28.4375 33.418 28.3906C33.6758 28.332 33.7578 28.0742 34.4961 25.3437C34.9297 23.7148 35.2695 22.3437 35.2461 22.2969C35.2227 22.2617 34.707 21.8398 34.0977 21.3594L32.9844 20.4805L32.6211 19.1562L32.2695 17.8203L32.8086 16.4258L33.3477 15.0195L32.5977 14.2578L31.8477 13.5078L33.0781 12.2773C34.0508 11.3047 34.332 11.082 34.4609 11.1875C34.7422 11.4336 37.5664 15.0312 39.6875 17.8672L41.7617 20.6562L42.4297 20.164C42.793 19.8945 43.1094 19.6719 43.1328 19.6484C43.1914 19.6015 37.3203 11.8086 36.3008 10.5781C33.7109 7.47264 31.4141 5.56248 28.25 3.89842C25.7539 2.59764 23.2695 1.66014 21.0312 1.20311C18.4531 0.675766 14.6328 0.441391 11.5742 0.617172ZM21.7578 11.5859C22.1328 12.0781 22.5781 12.5234 22.7305 12.582C22.8828 12.6406 23.7383 12.875 24.6289 13.1094L26.2461 13.543L27.3945 13.0976L28.5312 12.6523L29.9258 14.0469L31.3086 15.4414L30.8633 16.5781L30.418 17.7031L30.9102 19.5664L31.4023 21.418L32.0352 21.9453C32.3867 22.2383 32.8203 22.5898 32.9961 22.7187L33.3125 22.9765L32.832 24.7695C32.5625 25.7656 32.3047 26.6328 32.2461 26.7031C32.1875 26.7734 31.6484 26.9023 31.0508 26.9844L29.9727 27.125L28.5547 28.543L27.125 29.9492L26.9727 31.039C26.8906 31.6367 26.7969 32.1758 26.7617 32.2344C26.6562 32.3867 22.9766 33.3359 22.8828 33.2305C22.8359 33.1836 22.4961 32.7617 22.1328 32.293C21.7578 31.8242 21.3711 31.4258 21.2656 31.3906C20.3281 31.1094 17.9375 30.5 17.7617 30.5C17.6328 30.5 17.0586 30.6875 16.4844 30.9101L15.4414 31.3203L14.0469 29.9258L12.6406 28.5195L13.0859 27.3945L13.5312 26.2812L13.0273 24.3945L12.5234 22.5195L11.6094 21.793C11.1055 21.3945 10.6953 21.0078 10.6953 20.9492C10.6953 20.8789 10.9062 20.0117 11.1758 19.0039L11.668 17.164L12.793 17.0234L13.918 16.8711L15.3594 15.4531L16.8008 14.0234L16.9883 12.8515L17.1641 11.6797L18.9453 11.1992C19.918 10.9297 20.7969 10.7187 20.8906 10.707C20.9844 10.707 21.3828 11.1055 21.7578 11.5859ZM48.9453 37.5781C50.1641 37.9883 51.4883 38.668 52.8359 39.5937C54.6992 40.8476 57.207 42.9922 57.0195 43.1562C56.9727 43.2031 56.2461 43.4609 55.4258 43.7422C54.207 44.1406 53.9375 44.2695 53.9844 44.4219C54.418 45.8164 57.6758 57.5 57.6523 57.5351C57.6289 57.5586 54.9219 56.5976 51.6406 55.4023C48.3594 54.207 45.6758 53.2344 45.6641 53.2344C45.6641 53.2344 45.4766 54.0312 45.2539 54.9922C45.0312 55.9648 44.8203 56.7383 44.7852 56.7265C44.6328 56.6562 42.8398 54.6406 41.9492 53.5273C39.5586 50.539 38 47.4453 38 45.664C38 45.2422 38.082 45.125 38.9727 44.2461L39.9336 43.2851L45.2656 47.5508C48.1953 49.8945 50.6328 51.8047 50.668 51.793C50.8203 51.7461 51.7227 50.5273 51.6641 50.4453C51.6406 50.3984 49.2617 48.4883 46.3906 46.2031L41.1758 42.043L42.4414 40.7656L43.707 39.5L45.6172 40.9297C46.6602 41.7148 47.5625 42.3125 47.6094 42.2539C47.8789 41.9375 48.5703 40.918 48.5352 40.8828C48.5117 40.8594 47.75 40.3086 46.8477 39.6406C45.9453 38.9844 45.1602 38.3984 45.0898 38.3398C45.0312 38.2695 45.1836 38.0234 45.5 37.6953L46.0273 37.1562L47.0352 37.2148C47.6562 37.2617 48.3828 37.3906 48.9453 37.5781Z" fill="#CDD1DA" stroke="#CDD1DA"/>
<path d="M20.4922 16.0274C19.4492 16.2969 18.4531 16.8828 17.6094 17.7266C16.3672 18.9688 15.8516 20.2227 15.8516 22.0039C15.8516 24.3359 17.2109 26.5156 19.2617 27.4883C21.1719 28.3906 22.8242 28.3789 24.7109 27.4531C26.5039 26.5742 27.7695 24.8164 28.0625 22.8125C28.4727 20.0117 26.7969 17.2344 24.0781 16.1914C23.2109 15.8633 21.4766 15.7813 20.4922 16.0274ZM23.7383 17.9961C24.1016 18.1602 24.4062 18.3477 24.4062 18.3945C24.4062 18.4414 23.0469 19.8477 21.3711 21.5234L18.3477 24.5469L18.0078 23.8672C17.7031 23.2461 17.668 23.0586 17.668 22.0039C17.668 20.9844 17.7031 20.75 17.9727 20.1875C18.5117 19.0391 19.3906 18.2422 20.5742 17.8203C21.4648 17.5039 22.8359 17.5742 23.7383 17.9961ZM25.9531 20.1055C26.4688 21.1719 26.4922 22.4375 26.0234 23.6797C25.6836 24.6055 24.6055 25.6719 23.6445 26.0469C22.6602 26.4453 21.207 26.4453 20.3398 26.0586C20 25.9063 19.7188 25.7539 19.7188 25.707C19.7188 25.625 25.6133 19.7188 25.707 19.7188C25.7422 19.7188 25.8477 19.8945 25.9531 20.1055Z" fill="#CDD1DA" stroke="#CDD1DA"/>
<path d="M7.88281 7.23828L7.23828 7.88281L7.85938 8.49219L8.46875 9.11328L9.05469 8.52734C9.37109 8.21094 9.64062 7.89453 9.64062 7.82422C9.64062 7.75391 9.38281 7.44922 9.07812 7.14453L8.51562 6.59375L7.88281 7.23828Z" fill="#CDD1DA" stroke="#CDD1DA"/>
<path d="M10.2852 9.75781L9.69922 10.3438L10.3203 10.9531L10.9297 11.5742L11.5742 10.9297L12.2188 10.2969L11.668 9.73438C11.3633 9.42969 11.0586 9.17188 10.9883 9.17188C10.918 9.17188 10.6016 9.44141 10.2852 9.75781Z" fill="#CDD1DA" stroke="#CDD1DA"/>
</g>
<defs>
<clipPath id="clip0_135_245">
<rect width="60" height="60" fill="white" transform="translate(0.5 0.5)"/>
</clipPath>
</defs>
</svg>
