<svg width="70" height="70" viewBox="0 0 70 70" fill="none" xmlns="http://www.w3.org/2000/svg">
<path d="M49.0674 17.4037C46.4263 20.0741 46.4263 19.7677 49.082 22.4234C51.3146 24.6706 51.6211 24.8165 52.3799 24.0577C52.9927 23.4303 52.8906 22.9487 51.9275 21.9419C50.9936 20.9642 50.9936 20.9642 52.9198 21.2998C55.9258 21.8251 58.3043 23.0217 60.5515 25.1668C61.894 26.4509 62.7403 27.5891 63.5429 29.1942C65.863 33.8199 65.4545 39.5984 62.5214 43.9906C57.5601 51.4035 46.4263 52.3811 40.0057 45.9606C37.7001 43.655 36.3139 40.5469 35.9783 36.8697C35.8907 36.0525 35.774 34.71 35.6864 33.8783C35.0444 26.8449 29.835 20.935 22.714 19.1402C21.0213 18.717 17.3878 18.6878 15.5492 19.0818C11.945 19.8552 9.12868 21.3436 6.79393 23.6929C0.548482 29.9676 0.387968 40.722 6.41453 47.3031C8.13641 49.1855 10.8214 50.849 13.5063 51.6953C14.8342 52.1185 17.2419 52.6 18.0007 52.6C18.3363 52.6 18.2926 52.6876 17.4754 53.5339C16.4685 54.5846 16.3664 54.964 16.9063 55.606C17.1544 55.8833 17.3878 56 17.7235 56C18.132 56 18.4531 55.7519 20.2333 53.9717C22.8891 51.3305 22.8745 51.564 20.4814 49.1417C18.1175 46.7486 17.7672 46.5589 16.9939 47.3323C16.3518 47.9889 16.4248 48.3829 17.417 49.4189L18.2488 50.2945L17.3733 50.1923C14.8342 49.8859 11.7407 48.6747 9.85829 47.2301C7.33384 45.3185 5.5536 42.546 4.72184 39.219C4.44459 38.1538 4.40081 37.5409 4.40081 35.6002C4.41541 33.5718 4.45918 33.0757 4.78021 31.8791C6.22484 26.5092 9.97502 22.8758 15.5055 21.4895C17.3149 21.0372 20.7878 21.0226 22.4367 21.4895C25.1071 22.2191 27.2667 23.4595 29.1345 25.3127C30.4478 26.6114 31.265 27.7787 32.1259 29.6028C33.0015 31.456 33.3371 32.959 33.4976 35.7607C33.6727 39.0147 34.1397 40.8825 35.3216 43.261C37.598 47.77 41.5817 50.9365 46.5868 52.1914C47.652 52.4687 48.2795 52.5125 50.2786 52.5271C52.7739 52.5271 53.4889 52.4249 55.6339 51.7829C58.2751 50.9949 60.5369 49.6524 62.4922 47.6971C66.9866 43.2173 68.5042 36.3298 66.3884 29.9822C64.3017 23.7075 58.9901 19.6363 51.84 18.8046L50.9936 18.717L51.8837 17.7977C52.876 16.7617 52.9781 16.3239 52.3945 15.7548C52.161 15.5067 51.8837 15.39 51.5481 15.39C51.1249 15.39 50.8477 15.6089 49.0674 17.4037Z" fill="#071946"/>
<path d="M13.5356 25.6921C12.1055 26.4363 11.6094 27.0054 11.6094 27.9101C11.624 28.2895 11.7407 28.8294 11.8866 29.1067L12.1639 29.6028L11.6824 30.1573C11.4343 30.4638 10.9965 31.208 10.7193 31.8062C10.2231 32.8861 10.2231 32.8861 9.63945 32.9007C8.92443 32.9007 8.19482 33.3238 7.81543 33.9513C7.39225 34.6371 7.39225 36.7092 7.81543 37.395C8.20942 38.0371 8.92443 38.4457 9.68322 38.4457C10.0188 38.4457 10.2961 38.5186 10.2961 38.6062C10.2961 38.8834 11.1862 40.5615 11.6386 41.1161C11.8866 41.4517 12.0472 41.7727 12.0034 41.9186C11.9596 42.0499 11.8137 42.4439 11.6969 42.765C11.2592 43.9615 11.8429 44.8225 13.7107 45.7418C14.4549 46.1066 14.7759 46.1941 15.1699 46.1212C15.7682 46.0044 16.3518 45.5667 16.6291 45.0413L16.8334 44.6474L18.8325 44.6619L20.817 44.6765L21.1673 45.1873C21.605 45.8293 22.4222 46.2379 23.0788 46.1358C23.7063 46.0336 25.5595 44.9538 25.8513 44.516C26.2307 43.9177 26.2599 43.2173 25.9243 42.4585L25.6179 41.7727L26.1286 41.0723C26.4058 40.6929 26.8436 39.9487 27.0917 39.4088C27.5149 38.4895 27.5732 38.4457 28.0402 38.4457C28.799 38.4457 29.514 38.0809 29.8496 37.541C30.2582 36.8551 30.2728 34.5058 29.8642 33.8346C29.5432 33.3092 28.7552 32.9007 28.0548 32.9007C27.5732 32.9007 27.5149 32.8569 27.0917 31.9376C26.8436 31.3977 26.4058 30.6535 26.114 30.2595L25.6033 29.5591L25.9243 28.9462C26.2745 28.2604 26.2453 27.4432 25.8659 26.8595C25.6033 26.4655 24.0857 25.5316 23.2977 25.2981C22.8016 25.1522 22.6411 25.1668 22.0866 25.4441C21.7509 25.6046 21.3278 25.9548 21.1527 26.2174L20.8462 26.699L18.8471 26.6844H16.848L16.5707 26.2174C16.2205 25.6629 15.739 25.3273 15.0969 25.2252C14.7175 25.1668 14.3673 25.269 13.5356 25.6921ZM15.1845 28.4646C15.6952 29.3256 16.0454 29.4569 17.1982 29.1797C18.3802 28.9024 19.4308 28.9024 20.5836 29.1943C21.4591 29.4131 21.5612 29.4131 21.8969 29.1943C22.0866 29.0629 22.4076 28.6981 22.5827 28.3771C22.9475 27.7496 23.0059 27.7204 23.4436 27.9393C23.7209 28.0998 23.7209 28.1144 23.3561 28.7273C22.8016 29.6904 22.86 30.1281 23.7209 31.0766C24.5089 31.9376 25.0342 32.8861 25.3406 33.9221C25.6325 34.9727 25.9535 35.2354 26.9604 35.2354C27.8067 35.2354 27.8067 35.2354 27.8067 35.6732C27.8067 36.1109 27.7921 36.1109 27.0187 36.1109C26.0848 36.1109 25.5449 36.4611 25.4136 37.1616C25.2531 38.0225 24.4943 39.4088 23.7355 40.2551C22.8745 41.2182 22.787 41.6706 23.3415 42.6336L23.6917 43.2465L23.3561 43.4654C23.0205 43.6843 23.0059 43.6697 22.6265 43.0422C22.1012 42.1229 21.678 41.8748 21.0651 42.0791C20.2042 42.3856 18.3364 42.4439 17.2566 42.1813C16.0454 41.904 15.6514 42.0354 15.1407 42.9547C14.7905 43.5675 14.6154 43.6551 14.2506 43.4216C14.0609 43.3049 14.0901 43.159 14.4257 42.5023C14.6446 42.0791 14.8197 41.6122 14.8197 41.4663C14.8197 41.3203 14.5424 40.8972 14.1922 40.5178C13.2291 39.4817 12.9373 38.971 12.4703 37.6869C12.2369 37.0302 11.9888 36.432 11.9012 36.3444C11.8283 36.2715 11.3321 36.1693 10.8068 36.1401C9.88751 36.0818 9.85833 36.0672 9.85833 35.6732C9.85833 35.2792 9.88751 35.2646 10.8068 35.2062C11.3321 35.177 11.8283 35.0749 11.9012 35.0019C11.9888 34.9144 12.2223 34.3599 12.4266 33.7762C12.8643 32.5359 13.2437 31.8938 14.163 30.8578C14.5278 30.4492 14.8197 29.9968 14.8197 29.8509C14.8197 29.705 14.6592 29.2818 14.4549 28.8878C14.1922 28.3625 14.1484 28.129 14.2652 27.9831C14.5424 27.6475 14.7759 27.7788 15.1845 28.4646Z" fill="#071946"/>
<path d="M17.49 30.7703C15.9724 31.2664 14.9217 32.2003 14.2505 33.6303C13.9295 34.3016 13.8711 34.6372 13.8711 35.6732C13.8711 36.7822 13.9295 37.0303 14.3526 37.8912C14.9071 39.0148 15.6951 39.7882 16.8479 40.3281C17.5337 40.6492 17.8693 40.7075 18.9054 40.7075C19.9706 40.7075 20.2625 40.6492 20.9775 40.2989C22.7577 39.4234 23.75 37.9058 23.8375 35.8921C23.8813 34.9436 23.823 34.5496 23.5603 33.8492C23.1517 32.7402 22.0719 31.5728 20.9775 31.0621C19.9998 30.5951 18.4093 30.4638 17.49 30.7703ZM20.0144 33.178C22.1157 34.1265 22.0719 37.2492 19.956 38.1831C17.2565 39.3796 14.878 36.0234 16.8917 33.8346C17.7526 32.8861 18.8762 32.6672 20.0144 33.178Z" fill="#071946"/>
<path d="M51.1823 28.7857C50.9926 28.9754 50.4235 31.0183 49.3582 35.2792C48.4973 38.7084 47.7969 41.656 47.7969 41.8457C47.7969 42.2688 48.2638 42.7942 48.7454 42.9109C49.1831 43.013 49.7814 42.6628 49.9857 42.1959C50.0587 42.0208 50.8175 39.1023 51.6638 35.717C53.2689 29.2234 53.2981 29.0337 52.6269 28.6835C52.1891 28.4355 51.4741 28.4938 51.1823 28.7857Z" fill="#071946"/>
<path d="M43.4937 30.5805C43.0413 30.8431 39.189 34.6809 38.9555 35.1186C38.547 35.892 38.6491 36.0671 40.9547 38.3873C42.1804 39.613 43.3478 40.6928 43.5667 40.7804C44.3546 41.1014 45.3031 40.328 45.1134 39.5109C45.0551 39.2628 44.3255 38.4165 43.304 37.395L41.6113 35.6731L43.3916 33.8783C45.3907 31.85 45.4928 31.6019 44.7486 30.8431C44.2963 30.3908 43.9752 30.3324 43.4937 30.5805Z" fill="#071946"/>
<path d="M56.4517 30.5659C56.0577 30.7264 55.8242 31.1496 55.8242 31.6895C55.8242 32.0105 56.1744 32.4483 57.6045 33.8783L59.3993 35.6732L57.6045 37.468C56.0869 38.9856 55.8242 39.3212 55.8242 39.7152C55.8242 40.2989 56.2182 40.7513 56.8165 40.868C57.2834 40.9555 57.3856 40.8826 59.6911 38.577C61.9092 36.3882 62.0989 36.1547 62.0989 35.6732C62.0989 35.1916 61.9092 34.9582 59.7203 32.7839C57.3418 30.42 57.1375 30.2887 56.4517 30.5659Z" fill="#071946"/>
</svg>
