<svg width="61" height="61" viewBox="0 0 61 61" fill="none" xmlns="http://www.w3.org/2000/svg">
<path d="M6.12923 4.5819C4.86175 4.98798 3.97574 5.77554 3.39738 7.03072C3.12666 7.60908 3.12666 7.63369 3.08974 16.9737C3.05282 26.3259 3.05282 26.3382 3.31124 26.6582L3.56966 26.9904H6.9414H10.3131L10.5593 26.6705C10.7315 26.4613 10.8177 26.166 10.8177 25.8337C10.8177 25.1446 11.4083 23.9509 11.9867 23.4341C12.7127 22.8065 13.4142 22.5358 14.3863 22.5358C16.3306 22.5358 17.7457 23.8525 18.0165 25.9198C18.1641 27.015 18.0903 26.9904 21.8927 26.9904C25.0553 26.9904 25.2276 26.9781 25.4614 26.7443C25.6952 26.5105 25.7075 26.3382 25.7075 23.8525V21.2191L26.2243 21.0714C28.2917 20.5177 29.8914 18.7211 30.2605 16.5307C30.7036 13.9219 29.1653 11.3869 26.5566 10.4394L25.769 10.1563L25.7075 7.48602C25.6459 4.86493 25.6459 4.8157 25.3506 4.5819C25.0799 4.3604 24.7476 4.34809 15.9368 4.3604C7.53207 4.3604 6.76912 4.3727 6.12923 4.5819ZM23.7632 8.91348L23.8001 11.51L24.1447 11.8053C24.3662 11.9899 24.6492 12.1006 24.9076 12.1006C25.486 12.1006 26.4581 12.4821 27.0488 12.9497C27.7625 13.5281 28.2916 14.6356 28.2916 15.6077C28.2916 16.6045 28.0209 17.3797 27.4056 18.0689C26.8273 18.7211 26.2243 19.0656 25.3137 19.2379C24.9568 19.3117 24.5384 19.3979 24.3908 19.4348C23.837 19.5455 23.7386 20.0131 23.7386 22.6219V25.0338L21.8189 24.9969L19.9115 24.96L19.69 24.3324C18.6687 21.3175 15.3461 19.7793 12.3313 20.9361C11.5314 21.2437 10.6331 21.8959 10.1039 22.5481C9.66094 23.1019 8.97183 24.4678 8.97183 24.8C8.97183 24.9969 8.79955 25.0215 7.00293 25.0215H5.03403V16.6537C5.03403 9.36878 5.05864 8.22436 5.21861 7.81828C5.47703 7.2153 5.8585 6.82152 6.44917 6.5508C6.91679 6.3416 7.43362 6.31699 15.3338 6.31699H23.7263L23.7632 8.91348Z" fill="#CDD1DA" stroke="#CDD1DA"/>
<path d="M36.0805 14.8079C35.5883 15.0048 35.5514 15.2755 35.5514 18.6595C35.5514 22.4128 35.5022 22.2651 36.745 22.462C38.7754 22.7696 40.0306 24.1478 40.0306 26.0675C40.0429 27.9503 38.7016 29.4147 36.745 29.6485C35.5883 29.7838 35.5637 29.8453 35.5268 32.528L35.4898 34.8045H33.5948H31.6874L31.4044 34.0046C30.6784 31.9865 29.0909 30.6575 26.9621 30.2884C24.3656 29.8453 21.7445 31.4574 20.8585 34.0416L20.5877 34.8045L17.9174 34.866C15.5794 34.9153 15.2348 34.9522 15.0379 35.1491C14.8287 35.3583 14.8164 35.912 14.8164 44.7475V54.1243L15.161 54.8627C15.604 55.8225 16.4407 56.6593 17.3883 57.1023L18.1389 57.4469L36.2159 57.4838C56.2987 57.5207 54.9943 57.5699 56.3233 56.6962C57.1108 56.1794 57.8738 55.0596 58.0707 54.1489C58.1568 53.7059 58.1937 48.0454 58.1691 35.7274L58.1322 17.9458L57.7999 17.269C57.3446 16.3461 56.5694 15.5831 55.6095 15.1278L54.8097 14.7464L45.5805 14.7217C40.3629 14.7094 36.2405 14.7464 36.0805 14.8079ZM54.4405 16.7891C55.1296 16.9737 55.7203 17.4536 55.991 18.0566C56.2125 18.5365 56.2248 19.0164 56.2248 26.7074V34.866H53.5914H50.9457L50.6996 35.186C50.5519 35.3706 50.4412 35.6905 50.4412 35.8997C50.4412 37.2902 49.2721 38.8285 47.9308 39.1853C45.6297 39.8129 43.5623 38.3854 43.2424 35.9366C43.107 34.8783 43.0701 34.866 40.1045 34.866H37.5203V33.2171V31.5558L38.1848 31.3712C39.6738 30.9282 41.1258 29.55 41.7042 27.9995C42.3933 26.166 42.0118 23.9633 40.7197 22.4128C40.2152 21.8098 39.0093 21.0099 38.1848 20.7515L37.5203 20.5423V18.598V16.6537H45.7404C51.2903 16.6537 54.1083 16.7029 54.4405 16.7891ZM27.7619 32.6018C28.8694 33.1309 29.5955 34.2261 29.7308 35.5429C29.78 36.0351 29.8785 36.2812 30.1 36.4904C30.3953 36.7611 30.4815 36.7734 32.9795 36.8103L35.5514 36.8472V38.7423V40.6374L35.0345 40.785C32.9672 41.3388 31.3675 43.1354 30.9983 45.3258C30.5553 47.9346 32.0935 50.4696 34.7023 51.4171L35.4898 51.7001L35.5268 53.6198L35.5637 55.5518L26.9497 55.5149L18.3481 55.478L17.819 55.1088C17.5359 54.8996 17.1791 54.5181 17.0437 54.2474C16.7853 53.7675 16.7853 53.6075 16.7484 45.3012L16.7115 36.8472L19.2957 36.8103C21.8306 36.7734 21.8798 36.7734 22.1875 36.4781C22.3967 36.2812 22.5074 36.0474 22.5074 35.789C22.5074 35.5798 22.5936 35.1245 22.692 34.7799C23.3319 32.6264 25.7069 31.6051 27.7619 32.6018ZM41.5196 38.004C42.1226 40.0221 43.9192 41.5849 45.9988 41.9172C47.7955 42.1879 49.7151 41.5234 50.9334 40.2067C51.5364 39.5299 52.1024 38.5085 52.2378 37.8194L52.3239 37.4502H54.2682H56.2248V45.535C56.2248 53.1276 56.2002 53.669 55.991 54.1243C55.7203 54.7396 55.1419 55.2441 54.5266 55.4164C54.2313 55.4903 51.1057 55.5395 45.802 55.5395H37.5326L37.4957 52.9553C37.4464 49.9158 37.4464 49.9158 36.1667 49.7435C34.8253 49.559 33.8163 48.8452 33.2502 47.6885C32.6719 46.5072 32.8195 45.0797 33.6317 43.9968C34.2716 43.1354 34.9607 42.7909 36.8681 42.4217C37.4095 42.3232 37.5203 41.8187 37.5203 39.5422V37.4379L39.44 37.4748L41.3719 37.5117L41.5196 38.004Z" fill="#CDD1DA" stroke="#CDD1DA"/>
</svg>
