<svg width="70" height="71" viewBox="0 0 70 71" fill="none" xmlns="http://www.w3.org/2000/svg">
<path d="M31.2119 5.12109C27.6026 6.40625 27.3018 11.3555 30.7334 13.0371C31.3897 13.3652 31.6905 13.4199 32.6065 13.4199C33.5225 13.4199 33.8233 13.3652 34.4795 13.0371C35.3682 12.5996 36.1338 11.8066 36.544 10.9043C36.9541 10.0156 36.9541 8.34766 36.544 7.45898C35.6279 5.43555 33.249 4.39648 31.2119 5.12109ZM34.001 7.28125C35.4502 8.45703 35.2725 10.4258 33.6319 11.3281C32.9209 11.7109 31.8682 11.6152 31.2119 11.082C29.7627 9.90625 29.9405 7.9375 31.5811 7.03516C32.292 6.65234 33.3447 6.74805 34.001 7.28125Z" fill="#071946" stroke="black" stroke-width="0.5"/>
<path d="M14.8476 12.3262C13.8222 12.7227 13.0703 13.4199 12.4824 14.5137C12.1679 15.1016 12.1132 15.3613 12.1132 16.3594C12.0995 17.3574 12.1542 17.6172 12.4687 18.2188C12.9199 19.0664 14.0683 20.1328 14.7656 20.3379L15.2851 20.502L15.3398 22.0605C15.3808 23.5098 15.4081 23.6465 15.7089 23.8926C15.8867 24.0293 16.1601 24.1523 16.3378 24.1523C16.5156 24.1523 16.789 24.0293 16.9667 23.8926C17.2675 23.6465 17.2949 23.5098 17.3359 22.0605L17.3906 20.502L17.9101 20.3379C18.6074 20.1328 19.7558 19.0664 20.207 18.2188C20.5214 17.6172 20.5761 17.3574 20.5624 16.3594C20.5624 15.375 20.5077 15.0879 20.207 14.5137C19.8242 13.7617 18.8945 12.832 18.1699 12.4492C17.541 12.1211 15.5722 12.0527 14.8476 12.3262ZM17.4589 14.2676C18.5253 14.7734 19.0038 16.25 18.457 17.3711C18.0468 18.2188 17.4999 18.5879 16.5292 18.6562C15.5449 18.7246 14.8749 18.4238 14.3828 17.6855C13.6308 16.5508 14.041 14.8418 15.1894 14.2676C15.791 13.9805 16.8437 13.9668 17.4589 14.2676Z" fill="#071946" stroke="black" stroke-width="0.5"/>
<path d="M47.3867 12.3261C46.3613 12.7226 45.6093 13.4199 45.0214 14.5136C44.707 15.1015 44.6523 15.3613 44.6523 16.3593C44.6386 17.3574 44.6933 17.6172 45.0078 18.2187C45.4589 19.0664 46.6074 20.1328 47.3046 20.3379L47.8242 20.5019L47.8788 22.0605C47.9199 23.5097 47.9472 23.6465 48.248 23.8926C48.6445 24.2207 49.0956 24.2207 49.4785 23.9062C49.7382 23.7011 49.7656 23.5097 49.7929 22.1152L49.8339 20.5566L50.4355 20.3515C51.3515 20.0508 52.5273 18.834 52.9101 17.7949C53.2929 16.7422 53.2245 15.4843 52.7324 14.4863C52.3632 13.7617 51.4335 12.832 50.7089 12.4492C50.08 12.1211 48.1113 12.0527 47.3867 12.3261ZM49.998 14.2676C51.0644 14.7734 51.5429 16.25 50.996 17.3711C50.5859 18.2187 50.039 18.5879 49.0683 18.6562C48.0839 18.7246 47.414 18.4238 46.9218 17.6855C46.1699 16.5508 46.58 14.8418 47.7285 14.2676C48.33 13.9804 49.3828 13.9668 49.998 14.2676Z" fill="#071946" stroke="black" stroke-width="0.5"/>
<path d="M29.8181 16.1543C24.7595 17.2891 20.7126 20.9805 19.3591 25.6699L19.1267 26.4356L17.3903 26.5176C15.3532 26.5996 14.2185 26.8867 12.3181 27.7754C8.53095 29.5801 5.79658 32.9297 4.75751 37.0996C4.30634 38.8906 4.33369 41.8848 4.8122 43.7031C5.4958 46.2735 6.75361 48.3926 8.64033 50.211C10.0349 51.5508 10.7321 52.0293 12.3454 52.7949C15.1755 54.1348 16.4196 54.2578 26.8376 54.2031L34.4802 54.1621L34.7399 53.834C35.0544 53.4512 35.0681 53.0274 34.7946 52.6309L34.5895 52.3438L25.6071 52.2754C16.9392 52.2207 16.57 52.207 15.4763 51.9336C11.0876 50.7852 7.83369 47.586 6.6579 43.2246C6.23408 41.6524 6.23408 38.9043 6.67158 37.3047C7.84736 32.9571 11.197 29.6895 15.5446 28.6504C16.5563 28.4043 17.0485 28.377 18.6618 28.418C20.3845 28.4727 20.7126 28.5274 21.902 28.9238C23.406 29.4434 24.9782 30.3594 26.1403 31.3848C26.7556 31.9453 27.0017 32.0821 27.3981 32.0821C27.9313 32.0821 28.3005 31.7129 28.3005 31.1797C28.3005 30.1543 24.7731 27.7754 22.1618 27.0235C20.8903 26.6543 20.9313 26.75 21.6149 25.0684C22.7087 22.416 24.9372 20.1465 27.6989 18.875C30.6657 17.5078 34.5485 17.5078 37.5153 18.875C39.5798 19.8184 41.3435 21.3223 42.5876 23.1817C43.8591 25.1094 44.4196 26.9824 44.529 29.6621C44.6247 32.0684 44.6247 32.0547 46.3063 32.2188C47.0036 32.2735 47.906 32.4102 48.3161 32.5059C48.9724 32.6426 49.1091 32.6426 49.4235 32.4375C49.7243 32.2324 49.779 32.1231 49.738 31.6309C49.697 31.125 49.6423 31.0293 49.2185 30.8242C48.9587 30.7012 48.2477 30.5235 47.6325 30.4278L46.5251 30.25L46.4431 28.9512C46.2243 25.4512 44.7477 22.252 42.2185 19.8321C40.8239 18.4922 40.1267 18.0137 38.5134 17.2481C36.4216 16.25 35.5329 16.0586 32.9489 16.0039C31.322 15.9629 30.447 16.0176 29.8181 16.1543Z" fill="#071946" stroke="black" stroke-width="0.5"/>
<path d="M49.834 34.3242C49.0957 34.6387 38.5547 40.709 38.1719 41.0371C37.9531 41.2148 37.6113 41.6797 37.3926 42.0898L36.9824 42.8144V47.7363C36.9824 52.4531 36.9961 52.7129 37.2969 53.8203C38.1035 56.7324 39.8125 59.289 42.1367 61.039C42.5332 61.3398 44.707 62.6113 46.9629 63.8691C50.0527 65.5781 51.1465 66.125 51.4063 66.0703C51.8711 65.9883 59.5137 61.7226 60.4023 61.0527C62.7676 59.2617 64.5039 56.6367 65.2422 53.7383C65.543 52.5898 65.5566 52.2617 65.5566 47.668V42.8144L65.1328 42.0625C64.9004 41.6523 64.5039 41.1465 64.2441 40.9414C63.752 40.5586 53.7852 34.8164 52.8418 34.3926C52.1855 34.0918 50.4629 34.0508 49.834 34.3242ZM57.5449 39.2324C61.0996 41.2695 63.1777 42.541 63.3555 42.7871C63.6289 43.1562 63.6426 43.3887 63.6836 47.1621C63.7109 49.6094 63.6699 51.5644 63.5742 52.207C63.123 55.3105 61.4414 58.0312 58.8574 59.7949C58.6387 59.9453 56.834 60.9707 54.8652 62.0781L51.2832 64.0742L47.6875 62.0781C45.7051 60.9844 43.9141 59.9453 43.6816 59.7949C41.125 58.0449 39.457 55.3789 38.9648 52.289C38.8691 51.6465 38.8281 49.8418 38.8555 47.2305C38.8965 43.3613 38.9102 43.1562 39.1836 42.7871C39.3613 42.541 41.4805 41.2558 44.9941 39.2324C50.3398 36.1699 50.5449 36.0605 51.2695 36.0605C52.0078 36.0605 52.1582 36.1289 57.5449 39.2324Z" fill="#071946" stroke="black" stroke-width="0.5"/>
<path d="M54.4548 48.2422L50.3122 52.3848L48.5622 50.6348C46.6755 48.7617 46.3884 48.6113 45.8278 49.2129C45.2399 49.8281 45.3766 50.0469 47.7555 52.4258C49.4372 54.1074 50.0524 54.6406 50.3122 54.6406C50.5856 54.6406 51.6794 53.6152 55.2751 50.0195C60.2106 45.084 60.238 45.043 59.568 44.4141C58.9118 43.7988 58.8571 43.8398 54.4548 48.2422Z" fill="#071946" stroke="black" stroke-width="0.5"/>
</svg>
