<svg width="1920" height="985" viewBox="0 0 1920 985" fill="none" xmlns="http://www.w3.org/2000/svg">
<g clip-path="url(#clip0_355_382)">
<rect width="1920" height="985" fill="#22773C"/>
<g style="mix-blend-mode:luminosity" opacity="0.15">
<path d="M537.158 1014.99C536.67 981.51 528.461 949.914 514.217 921.886C515.764 918.025 517.241 914.136 518.621 910.192C530.315 942.987 536.823 978.249 537.158 1014.99Z" fill="url(#paint0_linear_355_382)"/>
<path d="M50.2498 742.216C1.95612 779.499 -35.1736 813.089 -62.7979 857.048C-35.4523 809.869 3.54501 770.272 50.2498 742.216Z" fill="url(#paint1_linear_355_382)"/>
<path d="M537.16 1021.12C535.516 1195.8 394.621 1337.17 220.109 1339.57C218.617 1339.59 217.112 1339.61 215.607 1339.61C214.101 1339.61 212.708 1339.61 211.258 1339.58C35.6727 1337.25 -105.961 1194.18 -105.961 1018.05C-105.961 980.214 -99.4242 943.907 -87.41 910.192C-80.8176 891.627 -72.5526 873.856 -62.8102 857.048C-35.4647 809.869 3.53263 770.272 50.2374 742.216C95.8272 714.801 148.818 698.41 205.46 696.668C91.5763 701.323 0.661484 795.151 0.661484 910.192C0.661484 999.044 54.8786 1075.23 132.051 1107.46L135.089 1113.74C170.087 1182.98 241.893 1230.45 324.766 1230.45C441.047 1230.45 535.502 1137.01 537.146 1021.13L537.16 1021.12Z" fill="url(#paint2_linear_355_382)"/>
<path d="M642.986 912.115C642.986 1146.67 454.077 1337.1 220.121 1339.57C394.633 1337.17 535.528 1195.8 537.172 1021.12C537.172 1020.1 537.172 1019.07 537.172 1018.05C537.172 1017.04 537.172 1016.01 537.172 1014.99C536.838 978.249 530.329 942.987 518.635 910.192C474.467 786.106 356.249 697.142 217.138 696.501C216.455 696.501 215.772 696.501 215.089 696.501H214.392C213.472 696.501 212.539 696.501 211.633 696.529H211.089C210.113 696.529 209.152 696.557 208.19 696.599C207.298 696.627 206.392 696.655 205.5 696.696C148.844 698.425 95.8671 714.829 50.2773 742.244C50.5422 742.049 50.807 741.84 51.0718 741.631C111.658 694.926 359.873 662.201 463.261 597.196C471.68 591.9 479.15 586.395 485.45 580.652C581.605 659.023 643 778.412 643 912.143L642.986 912.115Z" fill="url(#paint3_linear_355_382)"/>
<path d="M211.27 1339.58C-22.895 1337.34 -212 1146.81 -212 912.115C-212 709.296 -70.7567 539.453 118.753 495.619C130.627 492.873 142.683 490.629 154.921 488.887C-163.832 572.178 -94.7153 881.926 -88.7919 906.178C-88.5549 907.167 -88.4156 907.683 -88.4156 907.683C-88.3877 907.613 -88.3598 907.558 -88.3319 907.488C-88.0392 908.394 -87.7047 909.3 -87.3842 910.178C-99.3984 943.893 -105.935 980.2 -105.935 1018.04C-105.935 1194.17 35.6985 1337.24 211.284 1339.57L211.27 1339.58Z" fill="url(#paint4_linear_355_382)"/>
<path d="M135.101 1113.74C31.4895 1087.03 -51.8989 1009.97 -87.3979 910.192C-87.7185 909.314 -88.053 908.408 -88.3457 907.502C-80.9449 889.021 -72.4429 872.407 -62.7981 857.062C-35.4526 809.883 3.54473 770.287 50.2495 742.23C95.8393 714.815 148.83 698.425 205.472 696.682C91.5884 701.338 0.673576 795.165 0.673576 910.206C0.673576 999.058 57.943 1081.51 135.101 1113.75C158.53 1119.78 158.628 1123.59 135.101 1113.75V1113.74Z" fill="url(#paint5_linear_355_382)"/>
<path d="M211.617 696.515C210.461 696.515 209.318 696.557 208.175 696.585C209.136 696.557 210.098 696.529 211.074 696.515C211.255 696.515 211.436 696.515 211.617 696.515Z" fill="url(#paint6_linear_355_382)"/>
<path d="M485.827 580.262C485.702 580.373 485.562 580.513 485.423 580.624C436.014 540.331 377.435 510.881 313.28 495.856C281.865 488.511 249.125 484.622 215.466 484.622C194.894 484.622 174.671 486.086 154.894 488.887C160.706 487.368 166.643 485.918 172.72 484.553C172.72 484.553 174.769 483.967 178.629 482.866C211.118 473.528 372.835 427.227 537.8 382C537.8 382 569.244 503.689 485.827 580.262Z" fill="url(#paint7_linear_355_382)"/>
<path d="M485.435 580.624C479.121 586.38 471.665 591.872 463.247 597.168C359.858 662.173 162.753 680.278 51.0569 741.603C50.7642 741.77 50.5273 742.021 50.2625 742.216C3.54372 770.272 -35.4536 809.869 -62.7852 857.048C-72.4439 872.393 -80.9319 889.006 -88.3327 907.488C-88.486 907.056 -88.6394 906.61 -88.7927 906.178C-94.7301 881.926 -163.833 572.178 154.92 488.887C174.711 486.072 194.934 484.622 215.492 484.622C249.138 484.622 281.891 488.511 313.306 495.856C377.447 510.866 436.04 540.317 485.449 580.624H485.435Z" fill="url(#paint8_linear_355_382)"/>
<path d="M537.159 1013.94C536.672 980.102 528.463 948.171 514.218 919.864C491.932 875.599 454.914 840.183 409.673 820.239C383.679 808.782 354.954 802.412 324.779 802.412C207.48 802.412 112.384 898.512 112.384 1017.05C112.384 1049.33 122.475 1086.28 135.116 1113.74C57.958 1081.16 0.688477 997.831 0.688477 908.045C0.688477 791.792 91.6032 696.975 205.487 692.278C206.379 692.236 207.285 692.208 208.177 692.18C209.25 692.152 210.351 692.125 211.439 692.111H211.62C212.526 692.083 213.459 692.083 214.379 692.083H215.076C215.759 692.083 216.456 692.083 217.125 692.083C356.236 692.724 474.454 782.635 518.623 908.031C530.316 941.175 536.825 976.813 537.159 1013.93V1013.94Z" fill="url(#paint9_linear_355_382)"/>
<path d="M537.171 1018.05C537.171 1019.09 537.171 1020.1 537.171 1021.12C535.513 1137 441.072 1230.43 324.791 1230.43C241.918 1230.43 170.111 1182.96 135.114 1113.72C158.543 1119.76 212.301 1123.88 214.391 1123.88H215.088C215.771 1123.88 216.468 1123.88 217.137 1123.88C333.892 1122.4 428.082 1027.3 428.082 910.192C428.082 879.25 423.385 847.626 411.552 821.075C456.793 840.824 491.93 869.048 514.216 912.84C528.46 940.854 536.684 981.496 537.157 1014.99C537.157 1016.01 537.157 1017.04 537.157 1018.05H537.171Z" fill="url(#paint10_linear_355_382)"/>
</g>
<g style="mix-blend-mode:luminosity" opacity="0.15">
<path d="M1551.72 843.191C1567.48 858.497 1585.95 869.348 1605.56 875.743C1606.63 878.252 1607.75 880.742 1608.94 883.212C1588.3 873.422 1568.92 860.081 1551.72 843.191Z" fill="url(#paint11_linear_355_382)"/>
<path d="M1904.18 743.84C1909.29 704.136 1910.93 671.325 1903.35 638.113C1912.56 672.689 1912.83 709.154 1904.18 743.84Z" fill="url(#paint12_linear_355_382)"/>
<path d="M1540.77 839.149C1460.48 757.342 1460.26 626.382 1540.12 544.303C1540.8 543.598 1541.49 542.893 1542.19 542.195C1542.89 541.497 1543.53 540.85 1544.22 540.19C1626.76 459.805 1758.85 460.471 1840.57 542.189C1858.13 559.745 1871.94 579.623 1882.01 600.84C1887.56 612.512 1891.97 624.591 1895.25 636.91C1904.45 671.486 1904.73 707.951 1896.08 742.637C1887.65 776.508 1870.67 808.698 1845.19 835.787C1895.87 780.789 1894.52 695.076 1841.15 641.701C1799.92 600.477 1739.42 590.286 1688.66 611.134L1684.34 609.634C1635.98 593.746 1580.64 605.036 1542.19 643.486C1488.24 697.436 1487.77 784.611 1540.77 839.136V839.149Z" fill="url(#paint13_linear_355_382)"/>
<path d="M1550.35 940.021C1441.52 831.196 1440.82 655.198 1548.22 545.507C1468.36 627.586 1468.58 758.545 1548.87 840.353C1549.34 840.825 1549.82 841.303 1550.29 841.775C1550.76 842.247 1551.24 842.726 1551.71 843.198C1568.91 860.088 1588.29 873.429 1608.93 883.219C1687 920.298 1783.12 906.725 1847.96 842.48C1848.28 842.163 1848.59 841.846 1848.91 841.53L1849.23 841.206C1849.66 840.779 1850.09 840.346 1850.5 839.913L1850.75 839.661C1851.21 839.208 1851.64 838.749 1852.07 838.283C1852.47 837.857 1852.88 837.423 1853.27 836.99C1878.75 809.902 1895.72 777.712 1904.15 743.84C1904.12 744.054 1904.1 744.274 1904.07 744.493C1897.63 794.272 1797.65 924.617 1779.84 1002.75C1778.39 1009.11 1777.48 1015.13 1777.22 1020.72C1696.25 1028.97 1612.37 1002.06 1550.33 940.014L1550.35 940.021Z" fill="url(#paint14_linear_355_382)"/>
<path d="M1552.32 541.394C1662 433.791 1838.14 434.451 1947.03 543.34C2041.13 637.441 2054.4 781.773 1986.81 890.035C1982.57 896.818 1978.02 903.453 1973.15 909.938C2082.4 723.406 1906.62 611.762 1892.62 603.259C1892.05 602.909 1891.75 602.735 1891.75 602.735C1891.76 602.78 1891.78 602.819 1891.8 602.864C1891.24 602.58 1890.67 602.315 1890.11 602.056C1880.04 580.839 1866.23 560.961 1848.67 543.405C1766.95 461.688 1634.86 461.022 1552.32 541.407L1552.32 541.394Z" fill="url(#paint15_linear_355_382)"/>
<path d="M1692.44 610.838C1752.9 575.155 1827.35 572.22 1890.11 602.043C1890.67 602.302 1891.24 602.567 1891.8 602.851C1896.94 614.86 1900.7 626.512 1903.35 638.107C1912.55 672.683 1912.83 709.148 1904.17 743.834C1895.74 777.705 1878.76 809.896 1853.29 836.984C1903.97 781.986 1902.62 696.273 1849.24 642.898C1808.02 601.675 1743.19 589.99 1692.44 610.831C1678.77 618.901 1676.95 617.181 1692.44 610.831L1692.44 610.838Z" fill="url(#paint16_linear_355_382)"/>
<path d="M1850.52 839.912C1851.05 839.375 1851.56 838.826 1852.08 838.282C1851.65 838.741 1851.21 839.201 1850.77 839.66C1850.68 839.744 1850.6 839.828 1850.52 839.912Z" fill="url(#paint17_linear_355_382)"/>
<path d="M1777.23 1021.07C1777.24 1020.96 1777.24 1020.83 1777.25 1020.72C1818.87 1016.49 1859.71 1002.97 1896.45 980.177C1914.43 969.01 1931.42 955.624 1947.04 940.008C1956.58 930.463 1965.29 920.401 1973.16 909.926C1971.17 913.327 1969.09 916.754 1966.9 920.207C1966.9 920.207 1966.23 921.429 1964.95 923.732C1954.2 943.137 1900.66 1039.65 1845.1 1137.17C1845.1 1137.17 1774.05 1095.3 1777.23 1021.07Z" fill="url(#paint18_linear_355_382)"/>
<path d="M1777.24 1020.72C1777.5 1015.12 1778.42 1009.11 1779.86 1002.75C1797.67 924.623 1880.72 824.774 1904.09 744.499C1904.15 744.286 1904.14 744.059 1904.18 743.846C1912.83 709.153 1912.56 672.689 1903.35 638.119C1900.71 626.518 1896.94 614.872 1891.8 602.863C1892.07 602.993 1892.35 603.129 1892.62 603.258C1906.63 611.755 2082.4 723.405 1973.15 909.938C1965.28 920.426 1956.57 930.482 1947.03 940.02C1931.42 955.63 1914.42 969.022 1896.44 980.19C1859.71 1002.98 1818.86 1016.51 1777.24 1020.73L1777.24 1020.72Z" fill="url(#paint19_linear_355_382)"/>
<path d="M1552.2 843.676C1568.13 859.151 1586.75 870.157 1606.5 876.681C1637.37 886.879 1670.98 886.135 1701.22 874.399C1718.6 867.654 1734.88 857.282 1748.88 843.282C1803.3 788.86 1802.84 700.153 1747.84 645.155C1732.86 630.179 1711.04 617.718 1692.44 610.844C1743.35 590.158 1808.58 602.25 1850.24 643.907C1904.17 697.844 1905.98 784.017 1855.33 839.034C1854.93 839.467 1854.52 839.9 1854.12 840.327C1853.64 840.838 1853.14 841.361 1852.64 841.872L1852.56 841.956C1852.15 842.39 1851.72 842.823 1851.29 843.25L1850.97 843.573C1850.65 843.89 1850.33 844.213 1850.02 844.524C1785.18 908.768 1688.61 921.902 1609.94 884.215C1589.14 874.263 1569.59 860.748 1552.21 843.683L1552.2 843.676Z" fill="url(#paint20_linear_355_382)"/>
<path d="M1550.29 841.774C1549.81 841.296 1549.34 840.824 1548.87 840.352C1495.87 785.82 1496.34 698.652 1550.29 644.702C1588.74 606.252 1644.08 594.961 1692.44 610.85C1678.77 618.92 1651.92 641.947 1650.95 642.917L1650.62 643.24C1650.31 643.557 1649.98 643.88 1649.67 644.191C1596.19 699.046 1596.62 786.874 1650.95 841.205C1665.3 855.561 1682.15 868.054 1699.96 874.883C1669.81 886.71 1640.41 889.917 1609.75 879.94C1590.15 873.551 1567.48 858.51 1551.72 843.191C1551.25 842.718 1550.77 842.24 1550.3 841.768L1550.29 841.774Z" fill="url(#paint21_linear_355_382)"/>
</g>
<g style="mix-blend-mode:luminosity" opacity="0.15">
<path d="M1405.77 56.5727C1405.52 39.5122 1401.34 23.4105 1394.08 9.12709C1394.87 7.15966 1395.62 5.17801 1396.32 3.16797C1402.28 19.8805 1405.6 37.8501 1405.77 56.5727Z" fill="url(#paint22_linear_355_382)"/>
<path d="M1405.77 59.6977C1404.94 148.715 1333.13 220.757 1244.2 221.979C1243.44 221.993 1242.68 222 1241.91 222C1241.14 222 1240.43 222 1239.69 221.986C1150.21 220.8 1078.04 147.891 1078.04 58.1351C1078.04 38.8515 1081.37 20.3491 1087.49 3.16782C1090.85 -6.29289 1095.06 -15.3487 1100.03 -23.9145C1113.96 -47.9569 1133.84 -68.1355 1157.64 -82.4331C1180.87 -96.404 1207.87 -104.757 1236.74 -105.645C1178.7 -103.272 1132.37 -55.4573 1132.37 3.16782C1132.37 48.4471 1160 87.2701 1199.33 103.699L1200.88 106.895C1218.71 142.181 1255.3 166.372 1297.54 166.372C1356.79 166.372 1404.93 118.756 1405.77 59.7048L1405.77 59.6977Z" fill="url(#paint23_linear_355_382)"/>
<path d="M1459.7 4.14824C1459.7 123.678 1363.43 220.722 1244.21 221.979C1333.14 220.757 1404.94 148.715 1405.78 59.698C1405.78 59.1795 1405.78 58.6539 1405.78 58.1354C1405.78 57.6169 1405.78 57.0913 1405.78 56.5728C1405.61 37.8503 1402.29 19.8806 1396.33 3.16808C1373.82 -60.0667 1313.58 -105.403 1242.69 -105.729C1242.34 -105.729 1241.99 -105.729 1241.64 -105.729H1241.29C1240.82 -105.729 1240.34 -105.73 1239.88 -105.715H1239.61C1239.11 -105.715 1238.62 -105.701 1238.13 -105.68C1237.67 -105.666 1237.21 -105.651 1236.76 -105.63C1207.89 -104.749 1180.89 -96.3895 1157.66 -82.4187C1157.79 -82.5181 1157.93 -82.6246 1158.06 -82.7312C1188.94 -106.532 1315.43 -123.209 1368.11 -156.336C1372.4 -159.035 1376.21 -161.84 1379.42 -164.767C1428.42 -124.828 1459.71 -63.9873 1459.71 4.16246L1459.7 4.14824Z" fill="url(#paint24_linear_355_382)"/>
<path d="M1239.7 221.986C1120.37 220.843 1024 123.75 1024 4.14832C1024 -99.2092 1095.98 -185.762 1192.55 -208.1C1198.6 -209.499 1204.75 -210.642 1210.98 -211.53C1048.55 -169.085 1083.77 -11.2359 1086.79 1.12263C1086.91 1.62692 1086.98 1.88968 1086.98 1.88968C1086.99 1.85417 1087.01 1.82579 1087.02 1.79028C1087.17 2.25195 1087.34 2.71362 1087.5 3.16109C1081.38 20.3424 1078.05 38.8447 1078.05 58.1284C1078.05 147.884 1150.23 220.793 1239.71 221.979L1239.7 221.986Z" fill="url(#paint25_linear_355_382)"/>
<path d="M1200.88 106.895C1148.08 93.2863 1105.59 54.0158 1087.5 3.16803C1087.34 2.72057 1087.16 2.2589 1087.02 1.79723C1090.79 -7.62086 1095.12 -16.0872 1100.03 -23.9072C1113.97 -47.9496 1133.84 -68.1282 1157.64 -82.4258C1180.88 -96.3967 1207.88 -104.749 1236.75 -105.637C1178.71 -103.265 1132.38 -55.45 1132.38 3.17514C1132.38 48.4544 1161.56 90.4736 1200.88 106.902C1212.82 109.977 1212.87 111.916 1200.88 106.902V106.895Z" fill="url(#paint26_linear_355_382)"/>
<path d="M1379.41 -164.781C1376.19 -161.848 1372.39 -159.049 1368.1 -156.35C1315.42 -123.224 1214.97 -113.997 1158.05 -82.7457C1157.9 -82.6605 1157.78 -82.5327 1157.65 -82.4332C1133.84 -68.1356 1113.97 -47.957 1100.04 -23.9146C1095.11 -16.0946 1090.79 -7.62827 1087.02 1.78983C1086.94 1.56964 1086.86 1.34236 1086.78 1.12218C1083.76 -11.2364 1048.54 -169.085 1210.98 -211.531C1221.07 -212.965 1231.37 -213.704 1241.85 -213.704C1258.99 -213.704 1275.68 -211.722 1291.69 -207.979C1324.38 -200.33 1354.24 -185.322 1379.42 -164.781H1379.41Z" fill="url(#paint27_linear_355_382)"/>
<path d="M1405.77 56.0399C1405.52 38.7947 1401.34 22.5226 1394.08 8.09715C1382.72 -14.4608 1363.86 -32.5086 1340.8 -42.6725C1327.56 -48.5108 1312.92 -51.7567 1297.54 -51.7567C1237.77 -51.7567 1189.31 -2.78408 1189.31 57.6238C1189.31 74.0735 1194.45 92.9026 1200.89 106.895C1161.57 90.296 1132.38 47.8293 1132.38 2.07413C1132.38 -57.1689 1178.72 -105.488 1236.75 -107.882C1237.21 -107.903 1237.67 -107.917 1238.12 -107.931C1238.67 -107.946 1239.23 -107.96 1239.78 -107.967H1239.88C1240.34 -107.981 1240.81 -107.981 1241.28 -107.981H1241.64C1241.99 -107.981 1242.34 -107.981 1242.68 -107.981C1313.57 -107.654 1373.82 -61.8354 1396.33 2.06702C1402.28 18.9571 1405.6 37.1185 1405.77 56.0328V56.0399Z" fill="url(#paint28_linear_355_382)"/>
<path d="M1405.78 58.1357C1405.78 58.6613 1405.78 59.1798 1405.78 59.6982C1404.93 118.75 1356.81 166.366 1297.55 166.366C1255.32 166.366 1218.73 142.174 1200.89 106.888C1212.83 109.964 1240.22 112.066 1241.29 112.066H1241.65C1241.99 112.066 1242.35 112.066 1242.69 112.066C1302.19 111.313 1350.19 62.8447 1350.19 3.16837C1350.19 -12.5995 1347.79 -28.7153 1341.76 -42.2458C1364.82 -32.1814 1382.72 -17.7986 1394.08 4.51789C1401.34 18.7942 1405.53 39.5054 1405.77 56.5731C1405.77 57.0916 1405.77 57.6172 1405.77 58.1357H1405.78Z" fill="url(#paint29_linear_355_382)"/>
</g>
</g>
<defs>
<linearGradient id="paint0_linear_355_382" x1="525.687" y1="1014.99" x2="525.687" y2="910.188" gradientUnits="userSpaceOnUse">
<stop stop-color="#003515"/>
<stop offset="1" stop-color="#BEDDC7"/>
</linearGradient>
<linearGradient id="paint1_linear_355_382" x1="-6.27801" y1="857.048" x2="-6.27801" y2="742.212" gradientUnits="userSpaceOnUse">
<stop stop-color="#003515"/>
<stop offset="1" stop-color="#BEDDC7"/>
</linearGradient>
<linearGradient id="paint2_linear_355_382" x1="215.577" y1="1339.61" x2="215.577" y2="696.645" gradientUnits="userSpaceOnUse">
<stop stop-color="#003515"/>
<stop offset="1" stop-color="#BEDDC7"/>
</linearGradient>
<linearGradient id="paint3_linear_355_382" x1="346.618" y1="1339.57" x2="346.618" y2="580.624" gradientUnits="userSpaceOnUse">
<stop stop-color="#003515"/>
<stop offset="1" stop-color="#BEDDC7"/>
</linearGradient>
<linearGradient id="paint4_linear_355_382" x1="-0.372911" y1="1339.58" x2="-0.372911" y2="488.856" gradientUnits="userSpaceOnUse">
<stop stop-color="#003515"/>
<stop offset="1" stop-color="#BEDDC7"/>
</linearGradient>
<linearGradient id="paint5_linear_355_382" x1="58.5529" y1="1119.79" x2="58.5529" y2="696.667" gradientUnits="userSpaceOnUse">
<stop stop-color="#003515"/>
<stop offset="1" stop-color="#BEDDC7"/>
</linearGradient>
<linearGradient id="paint6_linear_355_382" x1="209.896" y1="696.585" x2="209.896" y2="696.515" gradientUnits="userSpaceOnUse">
<stop stop-color="#003515"/>
<stop offset="1" stop-color="#BEDDC7"/>
</linearGradient>
<linearGradient id="paint7_linear_355_382" x1="349.238" y1="580.624" x2="349.238" y2="381.993" gradientUnits="userSpaceOnUse">
<stop stop-color="#003515"/>
<stop offset="1" stop-color="#BEDDC7"/>
</linearGradient>
<linearGradient id="paint8_linear_355_382" x1="193.145" y1="907.488" x2="193.145" y2="484.607" gradientUnits="userSpaceOnUse">
<stop stop-color="#003515"/>
<stop offset="1" stop-color="#BEDDC7"/>
</linearGradient>
<linearGradient id="paint9_linear_355_382" x1="268.905" y1="1113.74" x2="268.905" y2="692.067" gradientUnits="userSpaceOnUse">
<stop stop-color="#003515"/>
<stop offset="1" stop-color="#BEDDC7"/>
</linearGradient>
<linearGradient id="paint10_linear_355_382" x1="336.129" y1="1230.43" x2="336.129" y2="821.06" gradientUnits="userSpaceOnUse">
<stop stop-color="#003515"/>
<stop offset="1" stop-color="#BEDDC7"/>
</linearGradient>
<linearGradient id="paint11_linear_355_382" x1="1557.04" y1="837.869" x2="1605.66" y2="886.492" gradientUnits="userSpaceOnUse">
<stop stop-color="#003515"/>
<stop offset="1" stop-color="#BEDDC7"/>
</linearGradient>
<linearGradient id="paint12_linear_355_382" x1="1877.13" y1="664.336" x2="1930.41" y2="717.615" gradientUnits="userSpaceOnUse">
<stop stop-color="#003515"/>
<stop offset="1" stop-color="#BEDDC7"/>
</linearGradient>
<linearGradient id="paint13_linear_355_382" x1="1542.2" y1="542.181" x2="1840.51" y2="840.491" gradientUnits="userSpaceOnUse">
<stop stop-color="#003515"/>
<stop offset="1" stop-color="#BEDDC7"/>
</linearGradient>
<linearGradient id="paint14_linear_355_382" x1="1489.53" y1="604.196" x2="1841.65" y2="956.316" gradientUnits="userSpaceOnUse">
<stop stop-color="#003515"/>
<stop offset="1" stop-color="#BEDDC7"/>
</linearGradient>
<linearGradient id="paint15_linear_355_382" x1="1650.51" y1="443.2" x2="2045.22" y2="837.903" gradientUnits="userSpaceOnUse">
<stop stop-color="#003515"/>
<stop offset="1" stop-color="#BEDDC7"/>
</linearGradient>
<linearGradient id="paint16_linear_355_382" x1="1725.15" y1="572.515" x2="1921.46" y2="768.826" gradientUnits="userSpaceOnUse">
<stop stop-color="#003515"/>
<stop offset="1" stop-color="#BEDDC7"/>
</linearGradient>
<linearGradient id="paint17_linear_355_382" x1="1851.28" y1="839.081" x2="1851.31" y2="839.113" gradientUnits="userSpaceOnUse">
<stop stop-color="#003515"/>
<stop offset="1" stop-color="#BEDDC7"/>
</linearGradient>
<linearGradient id="paint18_linear_355_382" x1="1840.43" y1="957.531" x2="1932.59" y2="1049.69" gradientUnits="userSpaceOnUse">
<stop stop-color="#003515"/>
<stop offset="1" stop-color="#BEDDC7"/>
</linearGradient>
<linearGradient id="paint19_linear_355_382" x1="1761.2" y1="733.458" x2="1957.4" y2="929.659" gradientUnits="userSpaceOnUse">
<stop stop-color="#003515"/>
<stop offset="1" stop-color="#BEDDC7"/>
</linearGradient>
<linearGradient id="paint20_linear_355_382" x1="1630.36" y1="672.917" x2="1826" y2="868.555" gradientUnits="userSpaceOnUse">
<stop stop-color="#003515"/>
<stop offset="1" stop-color="#BEDDC7"/>
</linearGradient>
<linearGradient id="paint21_linear_355_382" x1="1545.03" y1="649.962" x2="1734.96" y2="839.896" gradientUnits="userSpaceOnUse">
<stop stop-color="#003515"/>
<stop offset="1" stop-color="#BEDDC7"/>
</linearGradient>
<linearGradient id="paint22_linear_355_382" x1="1399.93" y1="56.5727" x2="1399.93" y2="3.16601" gradientUnits="userSpaceOnUse">
<stop stop-color="#003515"/>
<stop offset="1" stop-color="#BEDDC7"/>
</linearGradient>
<linearGradient id="paint23_linear_355_382" x1="1241.89" y1="222" x2="1241.89" y2="-105.657" gradientUnits="userSpaceOnUse">
<stop stop-color="#003515"/>
<stop offset="1" stop-color="#BEDDC7"/>
</linearGradient>
<linearGradient id="paint24_linear_355_382" x1="1308.67" y1="221.979" x2="1308.67" y2="-164.781" gradientUnits="userSpaceOnUse">
<stop stop-color="#003515"/>
<stop offset="1" stop-color="#BEDDC7"/>
</linearGradient>
<linearGradient id="paint25_linear_355_382" x1="1131.85" y1="221.986" x2="1131.85" y2="-211.546" gradientUnits="userSpaceOnUse">
<stop stop-color="#003515"/>
<stop offset="1" stop-color="#BEDDC7"/>
</linearGradient>
<linearGradient id="paint26_linear_355_382" x1="1161.88" y1="109.978" x2="1161.88" y2="-105.645" gradientUnits="userSpaceOnUse">
<stop stop-color="#003515"/>
<stop offset="1" stop-color="#BEDDC7"/>
</linearGradient>
<linearGradient id="paint27_linear_355_382" x1="1230.46" y1="1.78983" x2="1230.46" y2="-213.712" gradientUnits="userSpaceOnUse">
<stop stop-color="#003515"/>
<stop offset="1" stop-color="#BEDDC7"/>
</linearGradient>
<linearGradient id="paint28_linear_355_382" x1="1269.07" y1="106.895" x2="1269.07" y2="-107.989" gradientUnits="userSpaceOnUse">
<stop stop-color="#003515"/>
<stop offset="1" stop-color="#BEDDC7"/>
</linearGradient>
<linearGradient id="paint29_linear_355_382" x1="1303.33" y1="166.366" x2="1303.33" y2="-42.2535" gradientUnits="userSpaceOnUse">
<stop stop-color="#003515"/>
<stop offset="1" stop-color="#BEDDC7"/>
</linearGradient>
<clipPath id="clip0_355_382">
<rect width="1920" height="985" fill="white"/>
</clipPath>
</defs>
</svg>
