<svg width="19" height="18" viewBox="0 0 19 18" fill="none" xmlns="http://www.w3.org/2000/svg">
<path fill-rule="evenodd" clip-rule="evenodd" d="M13.2911 3.5172C13.2911 3.5172 10.5536 2.08985 9.00974 2.11614C7.46532 2.14244 5.97461 2.68732 4.77727 3.66319C3.57994 4.63906 2.74555 5.98921 2.40825 7.49658C2.07095 9.00394 2.25034 10.5809 2.91758 11.974C3.58482 13.3671 4.70113 14.4954 6.08706 15.1774C7.47298 15.8594 9.04799 16.0556 10.5589 15.7343C12.0697 15.4131 13.4287 14.5931 14.4172 13.4062C15.4052 12.22 15.9659 10.7361 16.0091 9.19295L16.0092 9.19042L18.1235 9.24893L18.1234 9.25307C18.1092 9.75679 18.0529 10.2557 17.9562 10.7449C17.6658 12.2144 17.0113 13.5966 16.0425 14.7598C14.7502 16.3114 12.9738 17.3833 10.9988 17.8032C9.02372 18.2231 6.96485 17.9667 5.15315 17.0752C3.34145 16.1837 1.88218 14.7088 1.00996 12.8877C0.13774 11.0666 -0.0967613 9.00515 0.344161 7.0347C0.785083 5.06425 1.87581 3.29931 3.44098 2.02364C5.00615 0.747968 6.95483 0.0356851 8.97372 0.0013055C10.4874 -0.0244702 11.9745 0.331933 13.3016 1.02678C13.7446 1.25871 14.1698 1.52836 14.5721 1.83409L13.2924 3.51819L13.2911 3.5172Z" fill="#22773C"/>
<path fill-rule="evenodd" clip-rule="evenodd" d="M18.924 3.42667L9.367 12.816L4.0957 7.6372L5.49735 6.21053L9.367 10.0123L17.5224 2L18.924 3.42667Z" fill="#22773C"/>
</svg>
