<svg width="15" height="14" viewBox="0 0 15 14" fill="none" xmlns="http://www.w3.org/2000/svg">
<path d="M6.22109 1.09375L6.90859 0.40625C7.22109 0.125 7.68984 0.125 7.97109 0.40625L14.0648 6.46875C14.3461 6.78125 14.3461 7.25 14.0648 7.53125L7.97109 13.625C7.68984 13.9062 7.22109 13.9062 6.90859 13.625L6.22109 12.9375C5.93984 12.625 5.93984 12.1562 6.22109 11.8438L10.0023 8.25H1.03359C0.596094 8.25 0.283594 7.9375 0.283594 7.5V6.5C0.283594 6.09375 0.596094 5.75 1.03359 5.75H10.0023L6.22109 2.1875C5.93984 1.875 5.90859 1.40625 6.22109 1.09375Z" fill="#22773C"/>
</svg>
