<svg width="66" height="66" viewBox="0 0 66 66" fill="none" xmlns="http://www.w3.org/2000/svg">
<path d="M37.6314 58.7882C36.6633 58.7602 35.8578 58.4648 35.0841 57.8917L34.9302 58.0666C34.2698 58.9219 32.9287 59.4679 31.8776 59.5975C30.1104 59.8151 27.8232 58.4545 27.6092 56.5738L27.6048 56.5321C25.7496 56.4457 24.1271 55.8009 23.2666 54.0638C23.1757 53.8805 23.0673 53.6677 23.0281 53.4663C22.8893 52.7553 22.7498 53.1299 21.8935 53.0128C19.8574 52.7348 18.4197 51.057 18.387 49.0168C17.7572 48.9351 17.1753 48.8299 16.5942 48.561C14.4453 47.5666 13.6829 45.1207 14.6789 43.016L11.5322 40.0237C10.0683 42.3624 8.15849 40.973 6.31116 40.0067L3.44831 38.5053C0.814232 37.0019 2.59392 34.3785 3.52673 32.4236L8.50321 22.0493C9.23964 20.4929 10.2757 16.9405 12.5779 17.5446C13.1232 17.6877 13.6305 17.9958 14.1255 18.2583L15.6636 19.061C17.1976 19.865 19.2694 20.505 19.766 22.3641C19.869 22.7497 19.8274 23.2132 19.8266 23.6128L19.8971 23.6525C21.2648 24.2555 23.6791 23.7663 25.2037 23.6686C26.4112 23.5911 27.5983 23.646 28.7864 23.8701C30.2474 24.1455 30.6406 24.0148 32.0429 23.4721C31.0523 22.7445 29.966 22.1725 28.9052 21.5565C25.7328 19.7139 21.9078 17.0217 21.2751 13.1287C20.6177 9.0842 24.2221 5.98961 28.0908 5.95194C29.9534 5.96539 31.6172 6.55111 33.0032 7.8535C33.1355 7.78649 33.2646 7.63073 33.3787 7.53205C37.7959 3.71041 45.9946 7.23542 44.652 13.4963C44.0112 16.485 41.1765 19.082 38.6437 20.649L36.4367 21.9278C35.9427 22.2018 35.4379 22.462 34.9625 22.7678L35.4464 22.6358C36.9375 22.0986 40.32 22.9841 41.7337 23.443L43.4306 24.0006C44.7086 24.3587 45.2175 24.1377 46.2804 23.5361C45.6743 21.4419 47.6526 20.4653 49.1296 19.7065L51.2139 18.6334C51.8655 18.299 52.5451 17.8786 53.2322 17.6297C55.4004 16.8445 56.1828 19.3314 56.8836 20.799L63.2375 34.0677C64.4608 36.6134 64.198 37.7089 61.7874 38.9498L58.4273 40.6713C56.8058 41.5073 55.798 41.7528 54.5751 40.2168L53.1941 41.5891C53.2608 41.747 53.4577 41.9002 53.5584 42.0524C54.9888 44.2128 53.5833 47.6437 50.8651 48.027C50.5906 48.0658 50.2967 48.0521 50.0194 48.054C49.8261 50.2639 48.4343 52.0015 46.0708 52.0548C46.0232 54.0662 44.7642 55.7574 42.6282 55.8433C42.459 55.85 42.2526 55.7772 42.1085 55.8041C41.4653 57.6412 39.528 58.7879 37.6314 58.7882ZM27.7933 8.00488C25.4538 8.22915 23.012 9.85475 23.2653 12.4655C23.6286 16.2088 28.0748 18.6571 30.9729 20.3926L33.0011 21.6458L37.8235 18.7596C40.3337 17.0569 44.3985 13.3618 42.1148 10.0665C40.4175 7.61746 36.2142 7.24186 34.2492 9.44735C33.7805 9.97353 33.5041 10.6749 32.6617 10.3858L32.6206 10.3722C32.2501 10.2411 31.9848 9.75309 31.7266 9.4704C30.7347 8.38457 29.2359 7.89093 27.7933 8.00488ZM12.0225 19.5231C11.1089 21.0718 10.4405 22.7867 9.64627 24.4001L4.35288 35.5129C4.25385 35.7398 4.08403 36.0761 4.0741 36.3213C4.506 36.7514 5.04183 37.0439 5.5752 37.331L7.56165 38.3457C8.19076 38.6653 8.81252 39.0178 9.46328 39.291L9.63814 39.0189C10.4187 37.5185 11.0049 35.9134 11.643 34.3486L13.5897 30.0933L17.1483 24.0009C17.4027 23.5973 17.6649 23.2017 17.8422 22.7567C17.1702 21.9214 15.5737 21.2961 14.6274 20.8064C13.7737 20.3645 12.9224 19.8643 12.0225 19.5231ZM53.9359 19.5776C53.0445 19.9337 52.1961 20.4336 51.3427 20.873C50.6289 21.2405 48.7082 22.0357 48.2431 22.6585C48.4759 23.3498 48.8567 23.949 49.2326 24.5691L52.7354 30.8266L55.7681 37.9261C55.9579 38.3542 56.1833 38.7625 56.4048 39.1746L56.4771 39.2889C56.5842 39.2961 56.7013 39.2329 56.7989 39.1908L59.7247 37.7302C60.4024 37.3753 61.2088 37.0046 61.7806 36.4954L61.9559 36.3179C61.7879 35.5597 61.3295 34.8326 61.0044 34.1279L55.6234 22.8776C55.4187 22.4466 54.175 19.5948 53.9359 19.5776ZM36.5688 24.541C33.8704 24.5575 30.6801 25.9723 28.8116 27.8504C27.5045 29.1642 25.8387 31.688 25.8235 33.6569C25.8209 33.9772 25.9813 34.1487 26.2647 34.2621L26.3073 34.2794C27.7174 34.8002 29.7475 33.1068 30.6509 32.2021C30.9436 31.9089 31.2138 31.5886 31.5218 31.3117C34.4445 28.6847 38.4961 31.766 41.0323 33.4562L44.4397 35.6909L51.613 40.4245L53.7005 38.3005C52.5274 34.989 51.039 31.7355 49.3182 28.6736L47.307 25.3357C45.7009 26.1405 43.9971 26.1913 42.2831 25.7173L40.2583 25.0698C38.8492 24.6488 37.9922 24.585 36.5688 24.541ZM18.7098 25.3255L16.0263 29.9079L14.9154 32.1299L12.336 38.0852C13.2672 38.8381 14.1278 39.6558 14.9982 40.4769C15.3549 40.8135 15.7619 41.1301 16.0793 41.5033C16.1703 41.5097 16.7617 41.1697 16.8883 41.1172C19.7018 39.9519 22.5351 41.9136 22.7448 44.8605C24.8703 44.999 26.1959 46.0379 26.8875 48.12C28.6415 48.2736 30.1849 49.1798 30.8952 50.8677C31.2829 51.7895 30.7553 51.3119 31.9247 51.4881C33.6647 51.7504 35.2243 53.2046 35.686 54.8907C35.816 55.3656 35.6341 55.8025 35.9761 55.9564L36.4517 56.1943C36.8736 56.4234 37.2673 56.93 37.7589 56.957C38.5691 57.0014 40.0671 55.4705 40.307 54.707C39.9266 54.2048 39.309 53.8392 38.8073 53.4632L33.921 50.0049C33.4203 49.6504 32.7453 49.2785 32.3619 48.8023C31.7775 48.0767 32.2987 46.9335 33.2594 47.1634C33.6057 47.2463 33.8976 47.5072 34.1872 47.7046L41.0827 52.6341C41.3058 52.8004 42.4649 53.7897 42.6036 53.8134C43.4309 53.9549 44.6981 52.1775 43.4898 51.1849C42.8294 50.6424 42.0673 50.1854 41.3685 49.6893L35.0621 45.2114C34.8225 45.0334 34.5453 44.8556 34.3614 44.6177C33.7968 43.8866 34.4668 42.6949 35.389 42.9593C35.8455 43.0901 36.3497 43.6024 36.732 43.8875L38.6806 45.3134L43.2577 48.5294C43.9107 48.9756 44.5693 49.4893 45.2676 49.86C46.9384 50.7469 48.8756 48.3741 47.4786 47.0979C46.7487 46.4312 45.8289 45.8983 45.0144 45.338L38.0482 40.5851C37.6193 40.2865 36.9305 39.9513 36.8973 39.3553C36.8455 38.4242 37.7521 37.9107 38.5549 38.4012C38.8613 38.5885 39.1416 38.8303 39.432 39.0425L48.3323 45.1821C48.7765 45.5067 49.2804 45.945 49.8183 46.0881C51.3213 46.4881 52.7611 44.2476 51.7067 43.058C51.3628 42.6701 50.9175 42.3655 50.4965 42.0667L39.4842 34.8522C37.7867 33.7384 34.6077 31.2055 32.6882 32.9666L31.4602 34.2015C30.1837 35.3712 28.3561 36.4338 26.568 36.3757C23.84 36.2868 23.3879 34.1479 24.0443 31.8535C24.5418 30.1149 25.5341 28.4854 26.6993 27.1088L27.3825 26.3656C27.5637 26.1859 27.8598 25.8352 28.0707 25.7172L25.1684 25.7254L21.7285 25.9056C20.7006 25.9079 19.6316 25.8394 18.7098 25.3255ZM18.3296 42.8079C15.5976 43.2121 15.5146 46.9072 18.7486 46.9993C19.0389 46.9467 19.2373 46.7123 19.4377 46.5119L20.0139 45.9308C20.51 45.4271 20.8184 45.3809 20.6528 44.6434C20.4044 43.5381 19.4997 42.6783 18.3296 42.8079ZM22.4959 46.8347C19.7421 47.2702 19.7053 50.9666 22.7796 51.0386C23.1778 50.957 24.4938 49.3292 24.7502 48.9315C25.2953 48.086 23.7205 46.7264 22.4959 46.8347ZM27.0539 50.252C26.0775 50.386 25.2983 50.9168 25.0355 51.8847L25.0195 51.9421C24.6615 53.2991 25.8988 54.4209 27.1894 54.4725C27.3908 54.4631 27.5365 54.4762 27.6831 54.3179C28.0961 53.8716 28.9849 52.6829 29.2155 52.1781C28.9372 51.1621 28.2097 50.1649 27.0539 50.252ZM31.558 53.5417C28.8782 53.8075 28.7433 57.5754 31.6224 57.5825C34.832 57.2092 33.9616 53.6584 31.558 53.5417Z" fill="#071946" fill-opacity="0.7"/>
<path d="M27.7933 8.00488C25.4538 8.22915 23.012 9.85475 23.2653 12.4655C23.6286 16.2088 28.0748 18.6571 30.9729 20.3926L33.0011 21.6458L37.8235 18.7596C40.3337 17.0569 44.3985 13.3618 42.1148 10.0665C40.4175 7.61746 36.2142 7.24186 34.2492 9.44735C33.7805 9.97353 33.5041 10.6749 32.6617 10.3858L32.6206 10.3722C32.2501 10.2411 31.9848 9.75309 31.7266 9.4704C30.7347 8.38457 29.2359 7.89093 27.7933 8.00488Z" fill="#071946" fill-opacity="0.7"/>
<path d="M27.7935 8.00505C25.454 8.22933 23.0123 9.85492 23.2656 12.4657C23.6288 16.209 28.0751 18.6573 30.9731 20.3927L33.0013 21.646L37.8237 18.7598C40.3339 17.057 44.3987 13.3619 42.115 10.0666C40.4177 7.61764 36.2145 7.24203 34.2494 9.44753C33.7807 9.97371 33.5043 10.6751 32.6619 10.386L32.6208 10.3724C32.2503 10.2413 31.9851 9.75327 31.7269 9.47058C30.7349 8.38475 29.2361 7.8911 27.7935 8.00505Z" fill="#D9D9D9"/>
</svg>
