<svg width="70" height="70" viewBox="0 0 70 70" fill="none" xmlns="http://www.w3.org/2000/svg">
<g clip-path="url(#clip0_135_435)">
<path d="M19.1415 0.123032C18.0887 0.451157 17.2137 1.23045 16.7352 2.25584L16.4071 2.93944V10.3359C16.4071 18.457 16.4071 18.4433 17.2411 19.4551C17.4735 19.7285 17.952 20.125 18.2938 20.3437L18.9364 20.7129L26.4286 20.7539L33.9071 20.7949V23.2285V25.6758L31.7606 25.7305C29.6688 25.7715 29.5731 25.7851 28.7118 26.1953C28.2196 26.4277 27.5497 26.8926 27.2216 27.2207C26.6747 27.7676 25.8407 29.2168 25.8407 29.6269C25.8407 29.7637 24.6239 29.8047 20.2352 29.8047C15.6415 29.8047 14.6298 29.7773 14.6298 29.6269C14.6298 29.1758 13.7548 27.7402 13.1122 27.1387C11.9227 26.0312 10.3778 25.5254 8.81921 25.7578C8.02624 25.8808 7.6571 26.2363 7.6571 26.8516C7.6571 27.5898 8.14929 27.9043 9.14734 27.8086C10.6512 27.6445 11.8544 28.3418 12.4423 29.6953C13.3036 31.7051 11.8407 33.9062 9.63952 33.9062C7.78015 33.9062 6.54968 32.6621 6.50867 30.7344C6.48132 29.5996 6.23523 29.2578 5.45593 29.2578C4.69031 29.2578 4.44421 29.6953 4.45788 30.9668C4.48523 32.4297 4.90906 33.3594 6.00281 34.4668C6.83679 35.2871 7.31531 35.5742 8.4364 35.9023C8.57312 35.9434 8.61413 36.6816 8.61413 39.0059V42.082L6.64538 44.0371C5.00476 45.6641 4.64929 46.1016 4.51257 46.5937C4.23913 47.6465 4.43054 47.9746 6.63171 50.1758L8.61413 52.1582V58.7344C8.61413 65.2422 8.61413 65.3105 8.90124 65.5703C9.17468 65.8164 9.54382 65.8301 17.4462 65.8711L25.704 65.8984V66.9922C25.704 68.209 25.8407 68.6738 26.3602 69.2344C27.0165 69.9316 27.372 70 30.2841 70C32.9501 70 32.9637 70 33.2919 69.6582C33.702 69.2617 33.7294 68.7832 33.3739 68.3457C33.1141 68.0312 33.0458 68.0176 30.4618 67.9492L27.8231 67.8809L27.7821 64.8867C27.7548 62.5762 27.7958 61.8652 27.9188 61.7695C28.0145 61.7148 31.2001 61.6602 35.0009 61.6602C38.8016 61.6602 41.9872 61.7148 42.0829 61.7695C42.2059 61.8652 42.2469 62.5762 42.2196 64.8867L42.1786 67.8809L39.5399 67.9492C36.9559 68.0176 36.8876 68.0312 36.6278 68.3457C36.2723 68.7832 36.2997 69.2617 36.7098 69.6719L37.0516 70.0137L39.9091 69.9727L42.7665 69.9316L43.2997 69.5078C44.2567 68.7422 44.2977 68.5781 44.2977 64.832C44.2977 61.0312 44.2294 60.7578 43.1766 60.0605L42.6161 59.6777L39.2802 59.6367L35.9579 59.582V55.9043V52.2266L36.3407 52.1445C37.0516 51.9668 38.036 51.3926 38.6376 50.7773C39.1981 50.2168 40.0594 48.7129 40.0594 48.2891C40.0594 48.166 42.2333 48.125 50.4501 48.125C60.663 48.125 60.8407 48.125 61.1141 47.8516C61.3739 47.5918 61.3876 47.4004 61.3876 41.7676C61.3876 37.2285 61.4286 35.9434 61.5653 35.9023C62.536 35.6152 63.1513 35.2734 63.8485 34.6308C64.7645 33.7832 65.2841 32.8672 65.5028 31.6504C65.8993 29.5039 64.6005 27.1113 62.5087 26.1406C61.8388 25.8262 61.538 25.7715 60.4305 25.7715C59.3095 25.7715 59.0223 25.8262 58.3524 26.1406C57.2587 26.6465 56.2743 27.6035 55.7411 28.6973C55.3446 29.5039 55.3036 29.709 55.3036 30.8301C55.3036 31.9238 55.3583 32.1562 55.7411 32.9766C56.3973 34.3711 57.5458 35.3555 59.1044 35.875C59.3231 35.9434 59.3368 36.3125 59.3368 41.0156V46.0742H49.7118H40.0868L39.868 45.418C39.4032 44.0644 38.2274 42.8887 36.7372 42.3144L36.0262 42.0273L35.9852 39.0605L35.9579 36.0937H37.3524C39.4169 36.0801 40.5106 35.9023 41.5087 35.4101C42.5067 34.918 43.2997 34.0976 43.8466 32.9629C44.1747 32.293 44.2157 32.0332 44.2294 30.8984C44.2294 29.75 44.1884 29.5039 43.8466 28.7793C43.3407 27.6992 42.288 26.6465 41.2352 26.1543C40.4559 25.7988 40.2372 25.7715 38.2137 25.7031L36.0262 25.6348V23.2422V20.8496L43.5458 20.7812L51.0653 20.7129L51.7079 20.3437C52.0497 20.125 52.5282 19.7285 52.7606 19.4551C53.4852 18.5664 53.5946 18.0195 53.5946 15.0254V12.3183L53.2391 12.0449C52.829 11.7168 52.6512 11.6894 52.1864 11.9082C51.6259 12.168 51.5438 12.5644 51.5438 15.1211C51.5438 16.9941 51.5028 17.5957 51.3387 17.9101C50.8876 18.7715 51.8309 18.7305 34.9735 18.7305C20.0302 18.7305 19.6063 18.7168 19.2235 18.4707C18.4442 17.9512 18.4716 18.1562 18.4579 10.3769C18.4579 3.28123 18.4579 3.17186 18.745 2.81639C19.3876 2.00975 18.4442 2.05077 35.0009 2.05077C51.3251 2.05077 50.5595 2.02342 51.202 2.73436C51.4481 3.0078 51.4755 3.28123 51.5438 5.76952C51.6122 8.43553 51.6259 8.50389 51.9403 8.76366C52.3505 9.10545 52.9247 9.09178 53.2938 8.74998C53.5809 8.47655 53.5946 8.36717 53.5946 5.70116C53.5946 3.08983 53.5673 2.89842 53.2665 2.25584C52.8973 1.4492 52.2821 0.792953 51.4891 0.369125L50.9286 0.0683441L35.2059 0.0410004C26.5653 0.0273285 19.3329 0.0683441 19.1415 0.123032ZM40.1278 27.9043C40.8524 28.1094 41.8915 29.1484 42.0966 29.873C42.3427 30.7754 42.2743 31.4863 41.8778 32.2656C41.3719 33.1953 40.6337 33.7285 39.5809 33.9062C38.5145 34.084 31.4872 34.084 30.4208 33.9062C29.3407 33.7285 28.6298 33.2226 28.1376 32.2793C27.2762 30.625 28.0419 28.5605 29.7509 27.959C30.4345 27.7129 39.2802 27.6719 40.1278 27.9043ZM61.743 28.082C64.122 29.1894 64.0536 32.6758 61.6337 33.6875C60.9227 33.9883 59.7196 33.9609 59.0907 33.6465C57.0946 32.6211 56.6981 30.2422 58.2567 28.6836C59.2411 27.6992 60.4716 27.4941 61.743 28.082ZM25.9501 32.4297C26.4012 33.8652 27.618 35.1367 29.0809 35.6836C29.7098 35.916 30.2977 35.998 31.8973 36.0527L33.9071 36.1348V39.1152V42.082L33.2645 42.3008C32.3622 42.6016 31.3368 43.4082 30.7352 44.2969C28.7665 47.1816 30.2157 51.0644 33.6747 52.1445C33.8934 52.2129 33.9071 52.5137 33.9071 55.9043V59.582L30.6532 59.6367L27.3856 59.6777L26.8251 60.0605C25.9774 60.6074 25.704 61.2637 25.704 62.6855V63.8477H18.1844H10.6649V57.9961V52.1445L12.5653 50.2305C14.6298 48.166 14.9032 47.7148 14.6981 46.6758C14.6161 46.2246 14.288 45.8144 12.6337 44.1601L10.6649 42.1777L10.6923 39.0605L10.7333 35.9434L11.5126 35.6289C12.9344 35.0547 13.9325 33.9883 14.4657 32.5117L14.6981 31.8555H20.2352H25.7723L25.9501 32.4297ZM11.1434 48.6719L9.57117 50.2441L8.03992 48.6992L6.49499 47.168L8.06726 45.5957L9.63952 44.0234L11.1708 45.5547L12.7157 47.0996L11.1434 48.6719ZM36.5868 44.5019C37.3251 44.9394 37.9677 45.8691 38.0907 46.6894C38.2958 48.1387 37.3114 49.6973 35.9169 50.1074C35.0555 50.3672 34.9462 50.3672 34.0848 50.1074C33.1278 49.8203 32.3348 49.0137 32.0477 48.0156C31.2548 45.3086 34.1395 43.0664 36.5868 44.5019Z" fill="#071946"/>
<path d="M35.0424 4.78525C34.8784 4.85361 34.6733 5.03134 34.5913 5.18174C34.3725 5.60556 33.4838 15.1212 33.6342 15.5177C33.8803 16.1739 34.6459 16.3106 35.1928 15.8185C35.5346 15.5177 35.5483 15.422 36.0268 10.5411C36.3549 7.12314 36.4506 5.49619 36.3686 5.31845C36.2045 5.03134 35.6987 4.64853 35.4799 4.6622C35.4116 4.6622 35.2065 4.71689 35.0424 4.78525Z" fill="#071946"/>
<path d="M29.5996 5.33195C29.4492 5.38664 28.3281 6.45304 27.1113 7.68351C25.0879 9.72062 24.8828 9.98039 24.8828 10.4042C24.8828 10.8417 25.0879 11.0878 27.248 13.2343C29.832 15.7909 30.0371 15.914 30.6934 15.2441C31.3496 14.6015 31.2129 14.3417 29.1621 12.2773L27.2891 10.3905L29.1621 8.50383C30.1875 7.46476 31.0352 6.50773 31.0352 6.38469C31.0352 5.9882 30.7344 5.49601 30.3926 5.34562C30.0098 5.16789 29.9688 5.16789 29.5996 5.33195Z" fill="#071946"/>
<path d="M39.5672 5.34562C39.2528 5.50969 38.9656 6.00187 38.9656 6.38469C38.9656 6.50773 39.8133 7.46476 40.8387 8.50383L42.7117 10.3905L40.8387 12.2773C38.7879 14.3417 38.6512 14.6015 39.3074 15.2441C39.9637 15.914 40.1688 15.7909 42.7528 13.2343C44.9129 11.0878 45.118 10.8417 45.118 10.4042C45.118 9.96672 44.9129 9.72062 42.8348 7.6425C40.5242 5.33195 40.1414 5.05851 39.5672 5.34562Z" fill="#071946"/>
</g>
<defs>
<clipPath id="clip0_135_435">
<rect width="70" height="70" fill="white"/>
</clipPath>
</defs>
</svg>
