<svg width="15" height="15" viewBox="0 0 15 15" fill="none" xmlns="http://www.w3.org/2000/svg">
<path d="M6.46055 1.59375L7.14805 0.90625C7.46055 0.625 7.9293 0.625 8.21055 0.90625L14.3043 6.96875C14.5855 7.28125 14.5855 7.75 14.3043 8.03125L8.21055 14.125C7.9293 14.4062 7.46055 14.4062 7.14805 14.125L6.46055 13.4375C6.1793 13.125 6.1793 12.6562 6.46055 12.3438L10.2418 8.75H1.27305C0.835547 8.75 0.523047 8.4375 0.523047 8V7C0.523047 6.59375 0.835547 6.25 1.27305 6.25H10.2418L6.46055 2.6875C6.1793 2.375 6.14805 1.90625 6.46055 1.59375Z" fill="white"/>
</svg>
